<svg width="375" height="812" viewBox="0 0 375 812" fill="none" xmlns="http://www.w3.org/2000/svg">
<g clip-path="url(#clip0_125_349)">
<rect width="375" height="812" rx="30" fill="white"/>
<rect width="375" height="812" fill="white"/>
<path d="M34.9886 18.2045C35.5076 18.2083 36.0189 18.303 36.5227 18.4886C37.0265 18.6742 37.4811 18.9773 37.8864 19.3977C38.2955 19.8182 38.6212 20.3864 38.8636 21.1023C39.1098 21.8144 39.2348 22.7008 39.2386 23.7614C39.2386 24.7803 39.1364 25.6875 38.9318 26.483C38.7273 27.2746 38.4337 27.9432 38.0511 28.4886C37.6723 29.0341 37.2121 29.4489 36.6705 29.733C36.1288 30.017 35.5189 30.1591 34.8409 30.1591C34.1477 30.1591 33.5322 30.0227 32.9943 29.75C32.4564 29.4773 32.0189 29.1004 31.6818 28.6193C31.3447 28.1345 31.1345 27.5777 31.0511 26.9489H32.7841C32.8977 27.4489 33.1288 27.8542 33.4773 28.1648C33.8295 28.4716 34.2841 28.625 34.8409 28.625C35.6932 28.625 36.358 28.2538 36.8352 27.5114C37.3125 26.7652 37.553 25.7235 37.5568 24.3864H37.4659C37.2689 24.7121 37.0227 24.9924 36.7273 25.2273C36.4356 25.4621 36.108 25.6439 35.7443 25.7727C35.3807 25.9015 34.9924 25.9659 34.5795 25.9659C33.9091 25.9659 33.2992 25.8011 32.75 25.4716C32.2008 25.142 31.7633 24.6894 31.4375 24.1136C31.1117 23.5379 30.9489 22.8807 30.9489 22.142C30.9489 21.4072 31.1155 20.7405 31.4489 20.142C31.786 19.5436 32.2557 19.0701 32.858 18.7216C33.464 18.3693 34.1742 18.197 34.9886 18.2045ZM34.9943 19.6818C34.5511 19.6818 34.1515 19.7917 33.7955 20.0114C33.4432 20.2273 33.1648 20.5208 32.9602 20.892C32.7557 21.2595 32.6534 21.6686 32.6534 22.1193C32.6534 22.5701 32.7519 22.9792 32.9489 23.3466C33.1496 23.7102 33.4223 24 33.767 24.2159C34.1155 24.428 34.5133 24.5341 34.9602 24.5341C35.2936 24.5341 35.6042 24.4697 35.892 24.3409C36.1799 24.2121 36.4318 24.0341 36.6477 23.8068C36.8636 23.5758 37.0322 23.3144 37.1534 23.0227C37.2746 22.7311 37.3352 22.4242 37.3352 22.1023C37.3352 21.6742 37.233 21.2765 37.0284 20.9091C36.8277 20.5417 36.5511 20.2462 36.1989 20.0227C35.8466 19.7955 35.4451 19.6818 34.9943 19.6818ZM42.4332 28.5568C42.1226 28.5568 41.8556 28.447 41.6321 28.2273C41.4086 28.0038 41.2969 27.7348 41.2969 27.4205C41.2969 27.1098 41.4086 26.8447 41.6321 26.625C41.8556 26.4015 42.1226 26.2898 42.4332 26.2898C42.7438 26.2898 43.0109 26.4015 43.2344 26.625C43.4579 26.8447 43.5696 27.1098 43.5696 27.4205C43.5696 27.6288 43.5166 27.8201 43.4105 27.9943C43.3082 28.1648 43.1719 28.3011 43.0014 28.4034C42.831 28.5057 42.6416 28.5568 42.4332 28.5568ZM42.4332 22.7273C42.1226 22.7273 41.8556 22.6174 41.6321 22.3977C41.4086 22.1742 41.2969 21.9053 41.2969 21.5909C41.2969 21.2803 41.4086 21.0152 41.6321 20.7955C41.8556 20.572 42.1226 20.4602 42.4332 20.4602C42.7438 20.4602 43.0109 20.572 43.2344 20.7955C43.4579 21.0152 43.5696 21.2803 43.5696 21.5909C43.5696 21.7992 43.5166 21.9905 43.4105 22.1648C43.3082 22.3352 43.1719 22.4716 43.0014 22.5739C42.831 22.6761 42.6416 22.7273 42.4332 22.7273ZM45.5781 27.7273V26.3068L50.6065 18.3636H51.7259V20.4545H51.0156L47.419 26.1477V26.2386H54.3111V27.7273H45.5781ZM51.0952 30V27.2955L51.1065 26.6477V18.3636H52.7713V30H51.0952ZM60.5497 18.3636V30H58.7884V20.125H58.7202L55.9361 21.9432V20.2614L58.8395 18.3636H60.5497Z" fill="white"/>
<path d="M290 26.5C290.552 26.5 291 26.9477 291 27.5V29.5C291 30.0523 290.552 30.5 290 30.5H289C288.448 30.5 288 30.0523 288 29.5V27.5C288 26.9477 288.448 26.5 289 26.5H290ZM295 24.5C295.552 24.5 296 24.9477 296 25.5V29.5C296 30.0523 295.552 30.5 295 30.5H294C293.448 30.5 293 30.0523 293 29.5V25.5C293 24.9477 293.448 24.5 294 24.5H295ZM300 22.5C300.552 22.5 301 22.9298 301 23.46V29.54C301 30.0702 300.552 30.5 300 30.5H299C298.448 30.4999 298 30.0702 298 29.54V23.46C298 22.9298 298.448 22.5001 299 22.5H300ZM305 20.5C305.552 20.5 306 20.9197 306 21.4375V29.5625C306 30.0803 305.552 30.5 305 30.5H304C303.448 30.5 303 30.0803 303 29.5625V21.4375C303 20.9197 303.448 20.5 304 20.5H305Z" fill="white"/>
<path d="M316.427 27.4004C317.702 26.3215 319.571 26.3215 320.847 27.4004C320.911 27.4584 320.947 27.5406 320.949 27.627C320.951 27.7134 320.917 27.7969 320.855 27.8574L318.858 29.873C318.8 29.9323 318.72 29.9658 318.637 29.9658C318.553 29.9658 318.474 29.9322 318.415 29.873L316.417 27.8574C316.355 27.7968 316.322 27.7133 316.323 27.627C316.325 27.5405 316.363 27.4584 316.427 27.4004ZM313.762 24.7109C316.51 22.1549 320.766 22.1549 323.514 24.7109C323.576 24.7708 323.611 24.8533 323.612 24.9395C323.613 25.0256 323.579 25.1087 323.519 25.1699L322.364 26.3369C322.245 26.456 322.053 26.4586 321.931 26.3428C321.028 25.5256 319.854 25.0732 318.637 25.0732C317.42 25.0737 316.247 25.5261 315.345 26.3428C315.223 26.4586 315.03 26.456 314.911 26.3369L313.757 25.1699C313.696 25.1088 313.662 25.0256 313.663 24.9395C313.664 24.8533 313.7 24.7708 313.762 24.7109ZM311.097 22.0293C315.312 17.9901 321.962 17.9899 326.177 22.0293C326.238 22.0892 326.272 22.1714 326.272 22.2568C326.273 22.3424 326.239 22.4246 326.179 22.4854L325.022 23.6523C324.903 23.7718 324.711 23.7731 324.59 23.6553C322.984 22.1285 320.853 21.2775 318.637 21.2773C316.421 21.2773 314.289 22.1284 312.683 23.6553C312.562 23.7733 312.369 23.772 312.25 23.6523L311.094 22.4854C311.033 22.4246 310.999 22.3424 311 22.2568C311.001 22.1713 311.036 22.0892 311.097 22.0293Z" fill="white"/>
<path opacity="0.35" d="M334.667 18.5H354.333C355.53 18.5 356.5 19.4704 356.5 20.667V28.333C356.5 29.5296 355.53 30.5 354.333 30.5H334.667C333.47 30.5 332.5 29.5296 332.5 28.333V20.667C332.5 19.4704 333.47 18.5 334.667 18.5Z" fill="white" stroke="white"/>
<path opacity="0.4" d="M357.65 23V27C358.455 26.6612 358.978 25.8731 358.978 25C358.978 24.1269 358.455 23.3388 357.65 23" fill="white"/>
<path d="M334.3 21.6666C334.3 20.9302 334.897 20.3333 335.633 20.3333H353.166C353.903 20.3333 354.5 20.9302 354.5 21.6666V27.3299C354.5 28.0663 353.903 28.6633 353.166 28.6633H335.633C334.897 28.6633 334.3 28.0663 334.3 27.3299V21.6666Z" fill="white"/>
<path d="M46.3695 73.8552L47.377 74.8166C47.2628 74.7459 47.1494 74.6824 47.0349 74.6128C46.6602 74.2926 46.285 73.9704 45.9088 73.6417C46.0624 73.7148 46.2158 73.7828 46.3695 73.8552ZM52.7759 78.8296C53.0355 79.0928 53.2969 79.3623 53.5556 79.6224L53.4485 79.5493L52.4667 78.6581L52.7759 78.8296ZM49.1594 75.1534C49.7302 75.7403 50.2947 76.3017 50.8646 76.8866C50.565 76.7138 50.2633 76.5262 49.963 76.3517C49.4036 75.8286 48.8381 75.2791 48.2754 74.7415C48.5698 74.8769 48.8653 75.0201 49.1594 75.1534ZM59.285 84.2619C59.5015 84.4891 59.7133 84.698 59.9289 84.9238L59.9234 84.9196C59.6747 84.6817 59.4228 84.4323 59.1732 84.1914L59.285 84.2619ZM55.7153 80.4471C56.2248 80.994 56.7368 81.5496 57.2446 82.0893C57.0096 81.9365 56.7753 81.7906 56.5402 81.6364C55.9614 81.0685 55.3906 80.5317 54.8096 79.9537C55.1111 80.116 55.4139 80.2879 55.7153 80.4471ZM51.9216 76.3485C52.6378 77.1372 53.3458 77.8936 54.0587 78.6671C53.6838 78.4623 53.309 78.2548 52.9334 78.046C52.2196 77.3265 51.5022 76.5914 50.7868 75.8638C51.1654 76.0277 51.5434 76.1873 51.9216 76.3485ZM353.311 -22.5362L353.043 -22.2887C352.844 -22.2445 352.645 -22.1975 352.446 -22.1516L352.694 -22.348C352.899 -22.4119 353.105 -22.4727 353.311 -22.5362ZM66.0817 90.2419L66.3058 90.4828C66.2038 90.3813 66.1033 90.2868 66.0014 90.1853L66.0817 90.2419ZM62.2947 86.1212C62.767 86.6491 63.2343 87.1592 63.703 87.6734C63.5166 87.5408 63.3312 87.4144 63.1442 87.2808C62.6447 86.7714 62.1421 86.2477 61.6426 85.7376C61.8608 85.8699 62.0766 85.991 62.2947 86.1212ZM58.5414 81.8943C59.2248 82.6637 59.9094 83.4396 60.5909 84.2023C60.2088 83.9661 59.8243 83.7169 59.4414 83.4773C58.7686 82.7716 58.09 82.0438 57.4109 81.3155C57.788 81.5093 58.1651 81.7035 58.5414 81.8943ZM54.6948 77.4931C55.5111 78.4455 56.3233 79.383 57.1314 80.306C56.7107 80.0877 56.2917 79.8833 55.8701 79.6612C55.0322 78.7566 54.198 77.8699 53.3589 76.9633C53.8048 77.1471 54.2495 77.3148 54.6948 77.4931ZM355.59 -23.2263C355.433 -23.0617 355.277 -22.8913 355.121 -22.7253L354.244 -22.543C354.395 -22.6809 354.546 -22.8228 354.698 -22.9593C354.995 -23.0485 355.293 -23.1391 355.59 -23.2263ZM356.972 -24.6623L356.664 -24.3454L356.066 -24.1759L356.333 -24.4136C356.546 -24.4965 356.759 -24.5821 356.972 -24.6623ZM358.251 -25.9744L358.208 -25.9315L358.019 -25.862L358.251 -25.9744ZM69.0919 92.2636C69.5339 92.7581 69.9786 93.2631 70.4218 93.7634L69.7557 93.2515C69.3241 92.7954 68.8851 92.3113 68.4497 91.842C68.6642 91.9847 68.8776 92.1216 69.0919 92.2636ZM65.2715 87.873C65.9161 88.6326 66.5619 89.398 67.198 90.1281C66.881 89.914 66.5599 89.6771 66.2426 89.4589C65.5529 88.7119 64.8673 87.9776 64.1772 87.2296C64.5416 87.4412 64.9079 87.6637 65.2715 87.873ZM61.3597 83.2789L63.772 86.1125C63.3322 85.8524 62.8938 85.6009 62.453 85.3364C61.6739 84.4735 60.8854 83.5745 60.0991 82.6846C60.5207 82.8907 60.9391 83.0775 61.3597 83.2789ZM57.4426 78.5665C58.3431 79.6712 59.2454 80.7809 60.133 81.8384C59.6569 81.6056 59.1778 81.3496 58.7006 81.1094C57.7784 80.0611 56.8645 79.0427 55.938 77.9785C56.4393 78.1733 56.9419 78.379 57.4426 78.5665ZM357.804 -23.8511C357.607 -23.6148 357.409 -23.382 357.211 -23.1433C356.855 -23.0751 356.499 -23.0093 356.143 -22.9383C356.339 -23.1444 356.537 -23.3444 356.734 -23.5498C357.091 -23.6495 357.447 -23.7531 357.804 -23.8511ZM359.153 -25.4595C358.999 -25.2785 358.845 -25.0934 358.69 -24.9104C358.4 -24.8322 358.11 -24.7523 357.819 -24.6713L358.283 -25.1417C358.573 -25.2479 358.863 -25.3554 359.153 -25.4595ZM360.481 -26.9953L360.175 -26.6412C359.973 -26.5712 359.771 -26.5018 359.57 -26.4294C359.662 -26.5211 359.754 -26.6139 359.846 -26.7053C360.058 -26.8005 360.269 -26.8998 360.481 -26.9953ZM361.726 -28.4114L361.659 -28.3355L361.419 -28.2324L361.437 -28.2493L361.726 -28.4114ZM75.9907 98.7857C76.3857 99.2481 76.7836 99.7213 77.176 100.174C77.0464 100.069 76.9152 99.9572 76.7857 99.85C76.327 99.3522 75.8724 98.8689 75.4129 98.3684L75.9907 98.7857ZM72.1231 94.2531C72.7498 94.9923 73.372 95.7144 73.9981 96.4505C73.6853 96.2212 73.3759 96.0081 73.0623 95.7764C72.4273 95.0705 71.7841 94.3359 71.1442 93.6135C71.4697 93.8223 71.7983 94.0474 72.1231 94.2531ZM68.1736 89.4888C68.9377 90.4251 69.7041 91.3691 70.458 92.2714C70.0563 92.0115 69.6537 91.745 69.251 91.4787C68.4564 90.5747 67.6701 89.7004 66.8706 88.7782C67.3063 89.0214 67.7392 89.2514 68.1736 89.4888ZM64.1623 84.6012C65.0709 85.7172 65.9708 86.8036 66.8763 87.9081C66.3952 87.6385 65.9137 87.3655 65.4314 87.088C64.5403 86.0526 63.6419 84.9909 62.7447 83.9333C63.2169 84.1519 63.6909 84.3884 64.1623 84.6012ZM60.1239 79.5212C61.1001 80.7631 62.0805 82.0184 63.0422 83.2102C62.5349 82.9752 62.0265 82.7345 61.5183 82.4921C60.5432 81.3344 59.5656 80.1655 58.5816 78.9762C59.0961 79.1624 59.6099 79.3415 60.1239 79.5212ZM359.973 -24.4263C359.757 -24.1319 359.541 -23.8338 359.325 -23.5374C358.915 -23.4639 358.505 -23.3857 358.094 -23.3085C358.319 -23.5778 358.544 -23.8478 358.769 -24.1144C359.17 -24.22 359.572 -24.3223 359.973 -24.4263ZM361.303 -26.2081C361.11 -25.9508 360.917 -25.6946 360.724 -25.437C360.369 -25.3465 360.016 -25.2529 359.661 -25.1607C359.86 -25.3933 360.059 -25.6221 360.258 -25.8522C360.606 -25.9729 360.955 -26.0895 361.303 -26.2081ZM362.605 -27.9216C362.447 -27.7153 362.286 -27.5134 362.128 -27.305C361.839 -27.2094 361.551 -27.1083 361.264 -27.011C361.424 -27.1937 361.587 -27.3716 361.748 -27.5532L362.605 -27.9216ZM363.868 -29.5498C363.765 -29.4186 363.662 -29.2833 363.559 -29.1522C363.352 -29.0657 363.146 -28.9738 362.939 -28.8859L363.237 -29.2161C363.447 -29.3271 363.657 -29.4405 363.868 -29.5498ZM365.082 -31.071L364.986 -30.9505C364.897 -30.9058 364.808 -30.8631 364.72 -30.8176L364.77 -30.8714C364.874 -30.9367 364.978 -31.0057 365.082 -31.071ZM82.9243 105.614C83.3167 106.083 83.6958 106.507 84.0854 106.968C84.0022 106.897 83.9209 106.832 83.8375 106.761C83.4192 106.296 82.9961 105.813 82.577 105.344C82.6924 105.432 82.8091 105.527 82.9243 105.614ZM79.0843 100.962C79.6626 101.663 80.2439 102.375 80.8186 103.064C80.5253 102.835 80.2333 102.612 79.9396 102.379C79.3332 101.69 78.7335 101.02 78.1223 100.313C78.4448 100.538 78.7623 100.74 79.0843 100.962ZM75.0209 96.0273C75.8103 97.0019 76.5834 97.9217 77.3681 98.8809C76.964 98.5967 76.5552 98.2908 76.1498 98.0018C75.3885 97.1165 74.6215 96.2116 73.8573 95.3152C74.2457 95.5563 74.6332 95.7926 75.0209 96.0273ZM71.0708 91.0533C71.9343 92.1452 72.7997 93.2436 73.6543 94.306C73.1943 94.0205 72.7389 93.756 72.2775 93.4635C71.3993 92.4199 70.5151 91.359 69.6268 90.2812C70.1079 90.538 70.5906 90.8043 71.0708 91.0533ZM66.9039 85.7896C67.8989 87.0636 68.8794 88.2871 69.8672 89.5379C69.3561 89.266 68.8421 88.9812 68.3296 88.7001C67.36 87.5239 66.3873 86.337 65.4129 85.1461C65.9108 85.365 66.4071 85.5775 66.9039 85.7896ZM62.7909 80.4233C63.8378 81.7957 64.8867 83.1758 65.9212 84.5075C65.3869 84.2738 64.8546 84.0547 64.3195 83.8134C63.2926 82.5445 62.2505 81.226 61.2089 79.906C61.7368 80.085 62.2637 80.2514 62.7909 80.4233ZM362.133 -24.9678C361.898 -24.6077 361.662 -24.2527 361.428 -23.8892C360.982 -23.8169 360.536 -23.7463 360.091 -23.6702C360.332 -23.997 360.572 -24.3204 360.814 -24.6445C361.253 -24.7559 361.693 -24.8622 362.133 -24.9678ZM363.408 -26.904C363.193 -26.5828 362.979 -26.2565 362.765 -25.9323C362.367 -25.8383 361.968 -25.749 361.57 -25.6519C361.788 -25.9399 362.004 -26.2343 362.222 -26.5198C362.617 -26.6522 363.013 -26.7785 363.408 -26.904ZM364.676 -28.784C364.486 -28.5053 364.298 -28.2225 364.108 -27.9421C363.763 -27.8334 363.417 -27.7264 363.071 -27.6153C363.268 -27.8687 363.463 -28.1242 363.66 -28.3755C363.998 -28.5157 364.338 -28.6463 364.676 -28.784ZM365.932 -30.5988C365.773 -30.3722 365.615 -30.1466 365.457 -29.9179L364.607 -29.5764C364.768 -29.7777 364.929 -29.978 365.09 -30.1786C365.37 -30.3205 365.651 -30.46 365.932 -30.5988ZM367.149 -32.3277C367.038 -32.1716 366.925 -32.0198 366.814 -31.8626C366.609 -31.7629 366.405 -31.6584 366.201 -31.5563C366.31 -31.6901 366.42 -31.8199 366.53 -31.9516C366.736 -32.0767 366.942 -32.2046 367.149 -32.3277ZM368.302 -33.9249L368.187 -33.7667C368.092 -33.7113 367.996 -33.6583 367.901 -33.6022L367.981 -33.698L368.302 -33.9249ZM90.1166 112.878C90.426 113.249 90.7375 113.626 91.0477 113.999C90.9287 113.893 90.8108 113.791 90.6917 113.684C90.3759 113.325 90.0554 112.951 89.7366 112.581C89.8643 112.684 89.9891 112.777 90.1166 112.878ZM86.0667 107.951C86.6238 108.646 87.1779 109.332 87.7281 110.005C87.4915 109.809 87.2533 109.608 87.0162 109.412C86.4292 108.729 85.839 108.037 85.253 107.356C85.525 107.558 85.795 107.751 86.0667 107.951ZM82.1077 102.998C82.8489 103.925 83.5926 104.861 84.3309 105.78C83.9186 105.47 83.5036 105.151 83.0898 104.835C82.3687 103.979 81.6342 103.079 80.902 102.187C81.3036 102.456 81.7073 102.734 82.1077 102.998ZM78.0015 97.8077C78.8605 98.9112 79.7109 99.9878 80.5611 101.064C80.123 100.768 79.6867 100.481 79.2473 100.18L76.6431 97.0205C77.0974 97.2899 77.5485 97.5448 78.0015 97.8077ZM73.8821 92.4642C74.8483 93.7233 75.8152 94.9809 76.7745 96.2162C76.2457 95.9027 75.7115 95.5629 75.1808 95.241C74.2571 94.1012 73.3143 92.8986 72.3763 91.7094C72.8785 91.9642 73.3809 92.2179 73.8821 92.4642ZM69.667 86.9397C70.7142 88.33 71.752 89.6908 72.7887 91.0465C72.2684 90.7837 71.7505 90.5353 71.2289 90.2633C70.1785 88.9407 69.133 87.6335 68.078 86.2961C68.6086 86.5175 69.1373 86.7269 69.667 86.9397ZM65.4384 81.2658C66.5518 82.7672 67.6646 84.2643 68.7677 85.7326C68.2011 85.5002 67.6306 85.2422 67.0625 84.9993C65.9893 83.6266 64.8928 82.1767 63.8017 80.7443C64.3473 80.9182 64.8936 81.1018 65.4384 81.2658ZM361.825 -21.1535C349.962 0.159961 339.043 25.9378 327.918 52.2115C287.104 148.608 243.476 251.582 139.865 163.668M364.272 -25.4714C364.034 -25.0605 363.797 -24.6407 363.559 -24.2254C363.08 -24.1537 362.6 -24.0806 362.121 -24.0037C362.368 -24.3837 362.616 -24.7627 362.865 -25.1399C363.334 -25.2521 363.802 -25.366 364.272 -25.4714ZM365.504 -27.5639C365.277 -27.1796 365.049 -26.7939 364.822 -26.4063C364.382 -26.3103 363.942 -26.2092 363.503 -26.1057C363.738 -26.4593 363.975 -26.8065 364.212 -27.1567C364.642 -27.2942 365.073 -27.4339 365.504 -27.5639ZM366.725 -29.5983C366.513 -29.2483 366.299 -28.9034 366.088 -28.5503C365.695 -28.4334 365.303 -28.3157 364.911 -28.194C365.129 -28.5127 365.347 -28.826 365.565 -29.1416C365.952 -29.2956 366.338 -29.4486 366.725 -29.5983ZM367.931 -31.5701C367.744 -31.2678 367.557 -30.9634 367.37 -30.659C367.033 -30.5318 366.696 -30.4122 366.359 -30.2805C366.55 -30.5524 366.738 -30.8282 366.929 -31.0959C367.262 -31.2577 367.597 -31.4121 367.931 -31.5701ZM369.13 -33.4787C368.974 -33.2333 368.819 -32.9828 368.664 -32.7357L367.829 -32.3442C367.988 -32.5643 368.146 -32.7872 368.306 -33.0056L369.13 -33.4787ZM370.31 -35.3074L369.973 -34.7899C369.769 -34.6764 369.566 -34.5565 369.363 -34.44L369.695 -34.8847C369.9 -35.0245 370.104 -35.1695 370.31 -35.3074ZM371.398 -36.9679L371.267 -36.7733L370.986 -36.5899L371.099 -36.7348C371.198 -36.8144 371.299 -36.8893 371.398 -36.9679ZM97.2376 120.288C97.5025 120.615 97.7702 120.951 98.0334 121.274L97.9645 121.21C97.636 120.828 97.3106 120.457 96.982 120.075L97.2376 120.288ZM93.2214 115.311C93.7922 116.017 94.3632 116.723 94.9355 117.436C94.6626 117.2 94.3833 116.943 94.1097 116.706C93.5605 116.054 93.0023 115.373 92.4483 114.706C92.7061 114.908 92.9643 115.111 93.2214 115.311ZM89.2424 110.271C89.9164 111.142 90.5936 112.023 91.2578 112.863C90.9315 112.604 90.6097 112.362 90.2827 112.099C89.528 111.186 88.7823 110.303 88.0247 109.381C88.429 109.671 88.8393 109.986 89.2424 110.271ZM85.0734 104.908L87.6185 108.182C87.1567 107.848 86.6931 107.507 86.2296 107.167C85.4183 106.165 84.5946 105.125 83.7737 104.094C84.2092 104.374 84.6392 104.633 85.0734 104.908ZM80.921 99.4627C81.8617 100.716 82.802 101.968 83.7295 103.179C83.2463 102.868 82.7595 102.538 82.2745 102.219C81.3029 100.998 80.345 99.8215 79.3678 98.5814C79.8858 98.8759 80.4048 99.1761 80.921 99.4627ZM76.6807 93.8137C77.714 95.1933 78.7435 96.5656 79.7722 97.9324C79.2359 97.629 78.7006 97.3321 78.1623 97.0196C77.1632 95.7408 76.1487 94.4137 75.1368 93.0944C75.653 93.344 76.1658 93.5726 76.6807 93.8137ZM72.3989 88.0098C73.5018 89.5233 74.6015 91.0265 75.6902 92.4944C75.1431 92.2328 74.5923 91.9481 74.0436 91.6777C72.9373 90.2356 71.84 88.8221 70.7253 87.3539C71.2833 87.573 71.842 87.8006 72.3989 88.0098ZM68.0358 82.0048C69.2049 83.6209 70.3688 85.222 71.5309 86.8152C70.9634 86.5971 70.3955 86.3759 69.8266 86.1475C68.6933 84.6479 67.5423 83.0902 66.3936 81.5402C66.9416 81.7021 67.4887 81.8518 68.0358 82.0048ZM366.409 -25.9249C366.168 -25.4585 365.927 -24.9948 365.687 -24.525C365.183 -24.4579 364.679 -24.3849 364.175 -24.3115C364.427 -24.7472 364.68 -25.1823 364.933 -25.6136C365.425 -25.7183 365.917 -25.8226 366.409 -25.9249ZM367.575 -28.1605C367.344 -27.7219 367.112 -27.2836 366.881 -26.841C366.414 -26.7459 365.948 -26.6458 365.482 -26.546C365.722 -26.9526 365.961 -27.3635 366.202 -27.7653C366.66 -27.8978 367.117 -28.0317 367.575 -28.1605ZM368.741 -30.3517C368.522 -29.9469 368.305 -29.5346 368.088 -29.1256C367.659 -29.0066 367.232 -28.8808 366.804 -28.7556C367.033 -29.1317 367.26 -29.5108 367.49 -29.8832C367.906 -30.0405 368.323 -30.2009 368.741 -30.3517ZM369.912 -32.4892C369.708 -32.1203 369.505 -31.7477 369.301 -31.3743C368.916 -31.238 368.531 -31.0938 368.147 -30.9496C368.36 -31.2928 368.575 -31.6319 368.789 -31.9724C369.163 -32.1471 369.537 -32.3214 369.912 -32.4892ZM371.072 -34.5586C370.886 -34.2308 370.7 -33.9069 370.515 -33.576C370.184 -33.4293 369.852 -33.2884 369.521 -33.1376C369.714 -33.4405 369.91 -33.7356 370.104 -34.0362C370.426 -34.2149 370.75 -34.383 371.072 -34.5586ZM372.216 -36.5577C372.06 -36.288 371.903 -36.0208 371.748 -35.7502C371.475 -35.6049 371.204 -35.4556 370.932 -35.3097C371.089 -35.5491 371.246 -35.7904 371.404 -36.0281C371.675 -36.2043 371.945 -36.3835 372.216 -36.5577ZM373.333 -38.4609C373.222 -38.2737 373.112 -38.0838 373.001 -37.8955C372.803 -37.7705 372.605 -37.6445 372.407 -37.516C372.518 -37.6804 372.628 -37.8461 372.739 -38.0077C372.937 -38.16 373.135 -38.3109 373.333 -38.4609ZM374.391 -40.2115L374.252 -39.9815L373.961 -39.7685L374.085 -39.9434L374.391 -40.2115ZM104.354 127.902L104.408 127.969L104.344 127.892L104.354 127.902ZM100.516 123.017C101.011 123.647 101.51 124.288 102.003 124.91C101.793 124.722 101.588 124.549 101.378 124.359C100.801 123.665 100.238 123.011 99.6575 122.303C99.9426 122.536 100.232 122.786 100.516 123.017ZM96.337 117.698C97.0392 118.603 97.727 119.46 98.428 120.359C98.085 120.075 97.7432 119.793 97.3993 119.503C96.7278 118.678 96.0491 117.829 95.3749 116.994C95.698 117.24 96.0146 117.457 96.337 117.698ZM92.2438 112.317C93.0659 113.406 93.8907 114.504 94.7027 115.563C94.2682 115.229 93.8267 114.873 93.3907 114.534C92.5574 113.489 91.7295 112.463 90.8885 111.395C91.3417 111.708 91.7923 112.01 92.2438 112.317ZM88.0319 106.761C88.9705 108.006 89.9002 109.222 90.8382 110.465C90.3595 110.132 89.8876 109.828 89.4068 109.488C88.4701 108.292 87.5247 107.07 86.5809 105.852C87.0635 106.152 87.5506 106.469 88.0319 106.761ZM83.7852 101.002C84.7878 102.376 85.7945 103.763 86.7815 105.091C86.2679 104.773 85.7534 104.449 85.2377 104.124C84.2332 102.819 83.23 101.52 82.2154 100.184C82.7411 100.468 83.2615 100.726 83.7852 101.002ZM79.4511 95.0858C80.5534 96.5967 81.6485 98.0833 82.7492 99.5881C82.1951 99.2895 81.6391 98.9825 81.0829 98.6741C80.0055 97.2507 78.919 95.7968 77.8313 94.3422C78.3711 94.5886 78.9129 94.8476 79.4511 95.0858ZM75.0767 88.9741C76.2213 90.5922 77.3695 92.2228 78.4958 93.7828C77.9448 93.5324 77.3935 93.2815 76.8406 93.0229C75.7003 91.4908 74.5588 89.9547 73.4063 88.3857C73.9642 88.5909 74.5196 88.7788 75.0767 88.9741ZM70.6211 82.698C71.8424 84.4256 73.0533 86.1224 74.2712 87.84C73.7006 87.6339 73.1307 87.4336 72.5586 87.219C71.3674 85.5915 70.1652 83.9315 68.9621 82.2661C69.5153 82.4162 70.0682 82.5566 70.6211 82.698ZM368.54 -26.3469C368.302 -25.831 368.066 -25.3094 367.83 -24.7887C367.306 -24.7267 366.783 -24.6697 366.259 -24.6035C366.508 -25.0876 366.756 -25.5716 367.005 -26.0502C367.516 -26.1537 368.028 -26.25 368.54 -26.3469ZM369.644 -28.7241C369.414 -28.2341 369.185 -27.7352 368.955 -27.2412C368.465 -27.1491 367.974 -27.0632 367.484 -26.9673C367.727 -27.4301 367.972 -27.8869 368.216 -28.3464C368.691 -28.4769 369.168 -28.5998 369.644 -28.7241ZM370.759 -31.0583C370.535 -30.5932 370.311 -30.1277 370.088 -29.6577C369.632 -29.54 369.177 -29.4222 368.722 -29.2996C368.958 -29.7371 369.194 -30.1669 369.431 -30.6004C369.873 -30.7556 370.316 -30.9079 370.759 -31.0583ZM371.876 -33.349C371.66 -32.9126 371.444 -32.4807 371.229 -32.0406C370.814 -31.9003 370.399 -31.7546 369.985 -31.611C370.206 -32.012 370.428 -32.4147 370.65 -32.812C371.058 -32.9926 371.466 -33.1751 371.876 -33.349ZM372.983 -35.5737C372.785 -35.1822 372.588 -34.7852 372.39 -34.3897C372.016 -34.2326 371.643 -34.0698 371.269 -33.9059C371.476 -34.2705 371.681 -34.6389 371.889 -35.0005C372.253 -35.1943 372.618 -35.3854 372.983 -35.5737ZM374.088 -37.7318C373.909 -37.3871 373.732 -37.0352 373.554 -36.6889C373.232 -36.5247 372.908 -36.3666 372.587 -36.1994C372.773 -36.5185 372.959 -36.8353 373.145 -37.1517C373.459 -37.3479 373.774 -37.5394 374.088 -37.7318ZM375.194 -39.8309C375.039 -39.5414 374.885 -39.2526 374.731 -38.9597C374.461 -38.7967 374.192 -38.6276 373.923 -38.4626C374.082 -38.7263 374.242 -38.9852 374.401 -39.2472C374.666 -39.4418 374.929 -39.64 375.194 -39.8309ZM376.252 -41.8004C376.138 -41.5904 376.022 -41.3862 375.908 -41.1759C375.716 -41.0407 375.523 -40.9117 375.331 -40.7737C375.447 -40.9611 375.564 -41.1413 375.68 -41.3269C375.87 -41.4881 376.062 -41.6409 376.252 -41.8004ZM377.261 -43.6282L377.118 -43.37C377.018 -43.2884 376.918 -43.2036 376.817 -43.121C376.859 -43.1858 376.9 -43.2527 376.942 -43.3182L377.261 -43.6282ZM111.831 136.039L112.535 136.924L112.48 136.871C112.227 136.566 111.966 136.238 111.71 135.928L111.831 136.039ZM107.753 130.854C108.186 131.421 108.622 131.997 109.048 132.544L108.641 132.167C108.156 131.573 107.67 130.975 107.188 130.388C107.378 130.55 107.563 130.694 107.753 130.854ZM103.644 125.497C104.313 126.368 104.986 127.25 105.655 128.119C105.279 127.794 104.9 127.453 104.523 127.124C103.893 126.336 103.249 125.506 102.608 124.688C102.955 124.964 103.298 125.225 103.644 125.497ZM99.4328 119.967C100.262 121.073 101.077 122.137 101.899 123.222C101.495 122.898 101.09 122.57 100.685 122.24C99.8501 121.178 99.0125 120.109 98.1778 119.047C98.5962 119.354 99.0159 119.666 99.4328 119.967ZM95.2824 114.362C96.1803 115.578 97.0801 116.8 97.9707 117.993C97.4819 117.633 96.9966 117.287 96.5056 116.919C95.6168 115.769 94.7157 114.579 93.8135 113.388C94.3032 113.713 94.7942 114.043 95.2824 114.362ZM90.9105 108.443C91.9434 109.859 92.9554 111.209 93.9824 112.607C93.4606 112.259 92.9334 111.89 92.4094 111.534C91.4109 110.219 90.4112 108.9 89.4095 107.575C89.9117 107.873 90.4098 108.154 90.9105 108.443ZM86.6452 102.492C87.7109 103.986 88.7786 105.485 89.8312 106.937C89.2871 106.617 88.7464 106.309 88.2001 105.978C87.1372 104.557 86.0616 103.095 84.9837 101.626C85.5368 101.911 86.0939 102.217 86.6452 102.492ZM82.1622 96.2378C83.3322 97.8852 84.4796 99.4647 85.6445 101.096C85.0805 100.808 84.5141 100.51 83.9477 100.212C82.815 98.6701 81.6805 97.1239 80.5414 95.562C81.0835 95.7967 81.6221 96.0118 82.1622 96.2378ZM77.7469 89.8946C78.9401 91.619 80.1369 93.3534 81.3117 95.0222C80.7458 94.7818 80.1812 94.5475 79.614 94.2958C78.4328 92.6649 77.2394 90.9954 76.0423 89.3146C76.6108 89.5109 77.1796 89.7082 77.7469 89.8946ZM73.1871 83.3344C74.4587 85.1729 75.7143 86.9636 76.9835 88.7969C76.4028 88.6014 75.8191 88.3848 75.237 88.1808C73.9949 86.4362 72.7509 84.6869 71.5006 82.9158C72.0628 83.0557 72.6256 83.2034 73.1871 83.3344ZM370.678 -26.7404C370.445 -26.1721 370.214 -25.6015 369.983 -25.0292C369.438 -24.9734 368.894 -24.9132 368.35 -24.8495C368.596 -25.3858 368.843 -25.9165 369.089 -26.4495C369.619 -26.5491 370.148 -26.6483 370.678 -26.7404ZM371.723 -29.2554C371.493 -28.7085 371.264 -28.166 371.036 -27.6144C370.525 -27.5287 370.015 -27.4368 369.505 -27.3431C369.744 -27.8557 369.984 -28.3691 370.225 -28.8759C370.723 -29.0054 371.223 -29.1333 371.723 -29.2554ZM372.77 -31.7249C372.547 -31.2053 372.324 -30.686 372.102 -30.1612C371.625 -30.0472 371.149 -29.9319 370.672 -29.8107C370.906 -30.2978 371.138 -30.789 371.372 -31.2707C371.837 -31.4264 372.303 -31.575 372.77 -31.7249ZM373.82 -34.1494C373.606 -33.662 373.393 -33.1652 373.18 -32.6741C372.739 -32.5348 372.297 -32.3993 371.856 -32.255C372.082 -32.7147 372.308 -33.1721 372.535 -33.6272C372.963 -33.8039 373.391 -33.9768 373.82 -34.1494ZM374.887 -36.5384C374.681 -36.0797 374.474 -35.6159 374.269 -35.1535C373.861 -34.9918 373.454 -34.823 373.047 -34.657C373.265 -35.0887 373.485 -35.5113 373.704 -35.9387C374.098 -36.1405 374.492 -36.3443 374.887 -36.5384ZM375.944 -38.8435C375.75 -38.4259 375.555 -38.0116 375.363 -37.5891C374.999 -37.4141 374.636 -37.2343 374.274 -37.0521C374.477 -37.4452 374.682 -37.8349 374.887 -38.2242C375.238 -38.4351 375.591 -38.6381 375.944 -38.8435ZM376.997 -41.0911C376.821 -40.7207 376.644 -40.352 376.469 -39.9786C376.156 -39.7984 375.842 -39.6181 375.53 -39.4351C375.709 -39.7709 375.886 -40.1113 376.066 -40.4433C376.376 -40.6596 376.686 -40.8786 376.997 -41.0911ZM378.037 -43.2576C377.891 -42.9578 377.747 -42.6506 377.601 -42.3498C377.339 -42.1738 377.079 -41.9906 376.818 -41.8092C376.973 -42.0894 377.127 -42.3727 377.282 -42.6516C377.533 -42.8556 377.785 -43.0569 378.037 -43.2576ZM379.062 -45.3172L378.73 -44.6505C378.54 -44.5035 378.351 -44.3558 378.161 -44.2064L378.501 -44.7991L379.062 -45.3172ZM380.039 -47.2392L379.879 -46.9311L379.593 -46.6743L379.744 -46.9266L380.039 -47.2392ZM115.045 138.891C115.483 139.466 115.919 140.035 116.352 140.596L115.898 140.159C115.448 139.6 114.99 139.017 114.537 138.448C114.707 138.599 114.875 138.741 115.045 138.891ZM110.944 133.49C111.618 134.376 112.297 135.274 112.972 136.16C112.655 135.875 112.328 135.561 112.009 135.273C111.307 134.385 110.616 133.531 109.913 132.639C110.257 132.924 110.601 133.208 110.944 133.49ZM106.8 127.962C107.561 128.992 108.321 130.024 109.07 131.024C108.683 130.7 108.302 130.396 107.913 130.067C107.133 129.063 106.341 128.018 105.551 126.985C105.966 127.305 106.387 127.649 106.8 127.962ZM102.501 122.139C103.406 123.367 104.308 124.586 105.21 125.808C104.744 125.447 104.277 125.081 103.809 124.713C102.906 123.53 102.013 122.377 101.108 121.19C101.576 121.521 102.035 121.816 102.501 122.139ZM98.2072 116.21C99.2007 117.597 100.197 118.995 101.176 120.339C100.655 119.97 100.123 119.565 99.5996 119.187C98.6381 117.906 97.6591 116.571 96.6834 115.247C97.1922 115.572 97.7004 115.893 98.2072 116.21ZM93.8247 110.115C94.9028 111.629 95.9621 113.085 97.0334 114.577C96.5029 114.24 95.9772 113.921 95.4445 113.574C94.3604 112.106 93.2845 110.663 92.1982 109.188C92.7399 109.495 93.2851 109.817 93.8247 110.115ZM89.4043 103.813C90.5401 105.44 91.6773 107.07 92.7988 108.655C92.2261 108.333 91.6485 107.989 91.0734 107.657C89.9822 106.157 88.8681 104.587 87.7589 103.031C88.3092 103.299 88.8562 103.553 89.4043 103.813ZM84.9108 97.3657C86.1113 99.1043 87.2995 100.804 88.489 102.507C87.9278 102.236 87.3706 101.983 86.8073 101.702C85.6047 100.022 84.4087 98.3631 83.2023 96.6714C83.7716 96.9029 84.343 97.1445 84.9108 97.3657ZM80.3558 90.7127C81.6098 92.5523 82.8609 94.3842 84.1021 96.1853C83.5108 95.9483 82.9162 95.6912 82.323 95.444C81.1167 93.7354 79.8855 91.9518 78.6586 90.1804C79.2248 90.3614 79.7908 90.5414 80.3558 90.7127ZM75.7389 83.8904C77.0381 85.8249 78.3333 87.7469 79.6168 89.6338C79.0465 89.4556 78.4769 89.2833 77.9054 89.0966C76.6135 87.2354 75.3302 85.4004 74.0338 83.5258C74.6031 83.6554 75.1709 83.7705 75.7389 83.8904ZM372.815 -27.0831C372.59 -26.4668 372.365 -25.8522 372.141 -25.2305C371.584 -25.1832 371.028 -25.1291 370.473 -25.075C370.709 -25.6585 370.945 -26.2437 371.183 -26.8204C371.727 -26.9104 372.27 -26.9986 372.815 -27.0831ZM373.795 -29.7412C373.573 -29.1476 373.353 -28.5491 373.133 -27.9505C372.604 -27.871 372.077 -27.7837 371.549 -27.697C371.783 -28.2595 372.018 -28.8211 372.254 -29.3793C372.767 -29.5027 373.281 -29.6257 373.795 -29.7412ZM374.78 -32.3527C374.563 -31.7856 374.349 -31.21 374.134 -30.6371C373.634 -30.5272 373.135 -30.4067 372.636 -30.2865C372.868 -30.8301 373.102 -31.3653 373.335 -31.9039C373.816 -32.056 374.298 -32.2081 374.78 -32.3527ZM375.777 -34.9124C375.563 -34.3691 375.35 -33.8234 375.138 -33.274C374.673 -33.1374 374.208 -32.9966 373.745 -32.8524C373.971 -33.3714 374.199 -33.884 374.427 -34.3968C374.876 -34.5738 375.326 -34.7419 375.777 -34.9124ZM376.78 -37.4327C376.57 -36.9133 376.36 -36.399 376.151 -35.8742C375.725 -35.7139 375.299 -35.5587 374.874 -35.3951C375.09 -35.8775 375.306 -36.3627 375.524 -36.84C375.942 -37.04 376.36 -37.2382 376.78 -37.4327ZM377.783 -39.8957C377.584 -39.4167 377.387 -38.9337 377.19 -38.4511C376.797 -38.2701 376.405 -38.0816 376.012 -37.8944C376.22 -38.3457 376.427 -38.7995 376.636 -39.245C377.018 -39.4649 377.4 -39.6839 377.783 -39.8957ZM378.782 -42.2843C378.597 -41.8498 378.415 -41.4066 378.231 -40.9681C377.88 -40.7763 377.529 -40.5865 377.179 -40.3885C377.375 -40.8023 377.572 -41.212 377.77 -41.6208C378.106 -41.8458 378.445 -42.0637 378.782 -42.2843ZM379.8 -44.6356C379.628 -44.2431 379.457 -43.8501 379.286 -43.4539C378.977 -43.2551 378.67 -43.0501 378.362 -42.8486C378.542 -43.2152 378.724 -43.5734 378.905 -43.9367C379.203 -44.1707 379.5 -44.4075 379.8 -44.6356ZM380.788 -46.8627C380.641 -46.5363 380.493 -46.2166 380.346 -45.8874C380.098 -45.7023 379.849 -45.5223 379.602 -45.3335C379.754 -45.6327 379.906 -45.9276 380.058 -46.2252C380.301 -46.4416 380.545 -46.6498 380.788 -46.8627ZM381.76 -49.0051C381.651 -48.7693 381.543 -48.5274 381.433 -48.2892C381.249 -48.1305 381.065 -47.9654 380.88 -47.8057C380.99 -48.0157 381.099 -48.2314 381.21 -48.4403C381.394 -48.6273 381.576 -48.8209 381.76 -49.0051ZM382.684 -50.9635L382.528 -50.6327L382.25 -50.3628L382.401 -50.6423C382.495 -50.7498 382.59 -50.8556 382.684 -50.9635ZM122.455 147.208C122.881 147.774 123.311 148.353 123.732 148.904C123.554 148.728 123.371 148.539 123.193 148.364C122.759 147.818 122.316 147.244 121.877 146.683L122.455 147.208ZM118.352 141.76L120.233 144.259C119.941 143.989 119.655 143.74 119.362 143.467C118.688 142.604 118.017 141.751 117.342 140.883C117.677 141.171 118.017 141.477 118.352 141.76ZM114.159 136.101C114.898 137.112 115.64 138.133 116.37 139.116C115.972 138.772 115.576 138.43 115.177 138.08C114.441 137.12 113.693 136.127 112.949 135.145C113.354 135.471 113.755 135.782 114.159 136.101ZM109.817 130.18C110.728 131.432 111.625 132.644 112.533 133.884C112.052 133.495 111.563 133.08 111.08 132.684C110.192 131.508 109.314 130.359 108.419 129.162C108.888 129.509 109.35 129.838 109.817 130.18ZM105.542 124.213C106.513 125.575 107.486 126.943 108.447 128.275C107.944 127.9 107.446 127.543 106.942 127.161C105.96 125.839 104.97 124.493 103.981 123.148C104.501 123.502 105.024 123.868 105.542 124.213ZM101.127 118.005C102.189 119.513 103.238 120.982 104.292 122.464C103.745 122.092 103.198 121.724 102.648 121.342C101.615 119.929 100.574 118.495 99.5278 117.044C100.063 117.372 100.594 117.687 101.127 118.005ZM96.6787 111.63C97.8156 113.265 98.9507 114.894 100.078 116.501C99.5074 116.154 98.9281 115.771 98.3554 115.413C97.2369 113.861 96.1173 112.305 94.9934 110.735C95.5565 111.04 96.1177 111.335 96.6787 111.63ZM92.181 105.11C93.363 106.838 94.5396 108.551 95.7081 110.238C95.1299 109.928 94.5561 109.639 93.9756 109.319C92.8197 107.691 91.6427 106 90.4694 104.32C91.0404 104.585 91.6123 104.854 92.181 105.11ZM87.5835 98.3665C88.8372 100.214 90.082 102.034 91.3278 103.858C90.7391 103.59 90.1456 103.295 89.5549 103.014C88.3196 101.249 87.0943 99.5133 85.8494 97.7174C86.4283 97.9397 87.0061 98.1548 87.5835 98.3665ZM82.9628 91.472C84.2471 93.403 85.5331 95.3401 86.7989 97.2162C86.2196 96.9978 85.6425 96.7926 85.0613 96.5654C83.8008 94.7393 82.5238 92.8659 81.2468 90.9919C81.8201 91.1622 82.3906 91.3113 82.9628 91.472ZM78.2523 84.3991C79.6023 86.441 80.9318 88.4216 82.2727 90.4378C81.6856 90.2695 81.0969 90.0917 80.5083 89.9136C79.1921 87.9798 77.8724 86.0348 76.5427 84.0611C77.1128 84.1785 77.6829 84.291 78.2523 84.3991ZM374.956 -27.3891C374.741 -26.7289 374.529 -26.0627 374.316 -25.3957C373.746 -25.3551 373.176 -25.3199 372.606 -25.2745C372.835 -25.9067 373.065 -26.5329 373.295 -27.1597C373.848 -27.2415 374.402 -27.3144 374.956 -27.3891ZM375.873 -30.1797C375.66 -29.5387 375.448 -28.8929 375.237 -28.2458C374.695 -28.173 374.153 -28.1053 373.612 -28.0263C373.839 -28.6408 374.068 -29.2461 374.297 -29.854C374.821 -29.9674 375.347 -30.0722 375.873 -30.1797ZM376.802 -32.9318C376.589 -32.3091 376.376 -31.6874 376.165 -31.0586C375.654 -30.9558 375.142 -30.8486 374.631 -30.741C374.855 -31.3302 375.079 -31.9188 375.303 -32.5026C375.802 -32.648 376.302 -32.7938 376.802 -32.9318ZM377.734 -35.6334C377.526 -35.0377 377.317 -34.4419 377.11 -33.8391C376.627 -33.7079 376.145 -33.5658 375.663 -33.4244C375.883 -33.9898 376.101 -34.5577 376.322 -35.117C376.792 -35.2921 377.263 -35.4663 377.734 -35.6334ZM378.67 -38.2803C378.466 -37.7141 378.265 -37.1394 378.062 -36.5671C377.611 -36.4089 377.16 -36.2491 376.71 -36.0827C376.928 -36.6278 377.146 -37.1702 377.366 -37.7088C377.799 -37.9058 378.235 -38.0909 378.67 -38.2803ZM379.62 -40.8888C379.421 -40.3507 379.224 -39.8038 379.027 -39.26C378.608 -39.0797 378.19 -38.8984 377.772 -38.7119C377.983 -39.2253 378.197 -39.7264 378.409 -40.234C378.812 -40.454 379.215 -40.6773 379.62 -40.8888ZM380.573 -43.4247C380.382 -42.923 380.192 -42.4234 380.003 -41.918C379.62 -41.7193 379.238 -41.5122 378.857 -41.3061C379.06 -41.7855 379.264 -42.2591 379.468 -42.7334C379.835 -42.9693 380.204 -43.196 380.573 -43.4247ZM381.531 -45.9124C381.349 -45.4471 381.166 -44.9858 380.985 -44.5151C380.648 -44.309 380.309 -44.105 379.972 -43.8934C380.159 -44.3204 380.344 -44.7515 380.531 -45.1744C380.865 -45.4205 381.197 -45.671 381.531 -45.9124ZM382.477 -48.308C382.316 -47.9087 382.157 -47.5005 381.997 -47.0975C381.699 -46.8858 381.403 -46.666 381.107 -46.4473C381.28 -46.8305 381.451 -47.2147 381.625 -47.5938C381.908 -47.8365 382.193 -48.0714 382.477 -48.308ZM383.43 -50.6338C383.289 -50.2937 383.149 -49.9475 383.009 -49.6047C382.765 -49.4049 382.522 -49.2053 382.279 -49.0035C382.427 -49.3193 382.575 -49.6335 382.724 -49.9476C382.959 -50.1758 383.194 -50.408 383.43 -50.6338ZM384.36 -52.8336C384.253 -52.5839 384.145 -52.3348 384.039 -52.0834C383.86 -51.9156 383.681 -51.7491 383.502 -51.5797C383.617 -51.816 383.734 -52.048 383.849 -52.2837C384.018 -52.4712 384.19 -52.6491 384.36 -52.8336ZM385.236 -54.8645C385.181 -54.7389 385.125 -54.6181 385.069 -54.4915C384.977 -54.3932 384.884 -54.2914 384.791 -54.1927C384.846 -54.3009 384.902 -54.405 384.957 -54.5136C385.05 -54.63 385.143 -54.7491 385.236 -54.8645ZM129.97 155.793C130.371 156.327 130.776 156.873 131.174 157.4C131.022 157.248 130.875 157.11 130.723 156.958C130.291 156.407 129.849 155.828 129.413 155.265C129.598 155.439 129.786 155.621 129.97 155.793ZM125.806 150.233C126.395 151.027 126.973 151.787 127.56 152.575C127.271 152.3 126.984 152.034 126.693 151.756C126.083 150.964 125.48 150.194 124.867 149.398C125.179 149.673 125.494 149.959 125.806 150.233ZM121.551 144.423C122.297 145.447 123.045 146.479 123.785 147.485C123.383 147.124 122.975 146.748 122.571 146.382C121.845 145.426 121.109 144.441 120.377 143.469C120.772 143.796 121.159 144.101 121.551 144.423ZM117.229 138.471C118.127 139.722 119.013 140.936 119.904 142.165C119.433 141.771 118.956 141.354 118.483 140.952C117.601 139.771 116.721 138.597 115.831 137.392C116.297 137.755 116.764 138.116 117.229 138.471ZM112.951 132.463C113.898 133.795 114.845 135.129 115.786 136.446C115.286 136.056 114.792 135.688 114.29 135.289C113.322 133.974 112.35 132.645 111.378 131.316C111.901 131.692 112.431 132.097 112.951 132.463ZM108.494 126.128C109.539 127.629 110.581 129.118 111.613 130.582C111.062 130.188 110.508 129.779 109.954 129.374C108.95 127.988 107.933 126.561 106.916 125.135C107.446 125.481 107.967 125.792 108.494 126.128ZM104.014 119.685C105.144 121.317 106.267 122.927 107.392 124.543C106.826 124.175 106.256 123.794 105.687 123.414C104.562 121.838 103.448 120.295 102.317 118.697C102.883 119.03 103.45 119.363 104.014 119.685ZM99.5097 113.088C100.673 114.805 101.84 116.532 102.986 118.201C102.415 117.869 101.845 117.545 101.27 117.203C100.122 115.571 98.9597 113.895 97.7976 112.224C98.3696 112.517 98.9401 112.804 99.5097 113.088ZM94.8886 106.274C96.1431 108.14 97.3791 109.95 98.6237 111.785C98.0286 111.484 97.4254 111.146 96.8275 110.833C95.6099 109.077 94.3927 107.323 93.1628 105.532C93.739 105.785 94.3143 106.032 94.8886 106.274ZM90.256 99.3158C91.5366 101.247 92.8148 103.172 94.0812 105.061C93.4967 104.81 92.9147 104.57 92.3281 104.307C91.0633 102.46 89.7933 100.597 88.5172 98.7159C89.0981 98.9245 89.6766 99.1178 90.256 99.3158ZM85.5501 92.1843C86.8837 94.2199 88.208 96.2279 89.5269 98.221C88.9308 98.0121 88.3314 97.7849 87.7333 97.5652C86.433 95.6419 85.119 93.6774 83.8017 91.7025C84.3844 91.8615 84.969 92.0352 85.5501 92.1843ZM80.766 84.8503C82.1445 86.9752 83.5118 89.0655 84.8785 91.1549C84.2908 90.9995 83.7013 90.8336 83.1122 90.668C81.7489 88.6245 80.3965 86.6109 79.0236 84.5376C79.6046 84.6446 80.1858 84.7525 80.766 84.8503ZM377.109 -27.6659C376.905 -26.958 376.702 -26.248 376.5 -25.5341C375.918 -25.5026 375.336 -25.4651 374.755 -25.4262C374.973 -26.103 375.191 -26.7795 375.411 -27.4509C375.976 -27.527 376.542 -27.5997 377.109 -27.6659ZM377.961 -30.5848C377.758 -29.8938 377.552 -29.2078 377.35 -28.5108C376.797 -28.4469 376.244 -28.3786 375.692 -28.3062C375.908 -28.9641 376.123 -29.6255 376.341 -30.2764C376.881 -30.3831 377.421 -30.4862 377.961 -30.5848ZM378.822 -33.4623C378.619 -32.7943 378.417 -32.1245 378.216 -31.449C377.69 -31.3539 377.165 -31.2584 376.64 -31.1561C376.856 -31.7964 377.072 -32.4364 377.289 -33.0692C377.799 -33.2064 378.311 -33.332 378.822 -33.4623ZM379.69 -36.3026C379.49 -35.6582 379.291 -35.0027 379.093 -34.3509C378.594 -34.2265 378.096 -34.0994 377.598 -33.969C377.812 -34.5866 378.028 -35.1966 378.244 -35.8075C378.725 -35.9762 379.207 -36.1431 379.69 -36.3026ZM380.571 -39.0863C380.373 -38.4685 380.177 -37.8463 379.981 -37.2224C379.51 -37.0692 379.041 -36.9038 378.571 -36.7408C378.784 -37.3372 378.998 -37.9269 379.212 -38.5166C379.664 -38.7115 380.117 -38.8996 380.571 -39.0863ZM381.46 -41.8214C381.264 -41.2248 381.067 -40.6333 380.872 -40.0303C380.437 -39.855 380.002 -39.68 379.568 -39.4962C379.775 -40.061 379.981 -40.6251 380.19 -41.1831C380.612 -41.3994 381.036 -41.6116 381.46 -41.8214ZM382.356 -44.5053C382.165 -43.9428 381.975 -43.3809 381.786 -42.8127C381.382 -42.6147 380.979 -42.41 380.576 -42.205C380.776 -42.7363 380.975 -43.2703 381.177 -43.7959C381.569 -44.0359 381.962 -44.2745 382.356 -44.5053ZM383.25 -47.1189C383.069 -46.5991 382.89 -46.0695 382.71 -45.5442C382.341 -45.3303 381.973 -45.1168 381.605 -44.8961C381.799 -45.3957 381.995 -45.8913 382.191 -46.3863C382.543 -46.6342 382.896 -46.8757 383.25 -47.1189ZM384.163 -49.6845C383.99 -49.206 383.82 -48.7224 383.649 -48.2391C383.315 -48.0141 382.984 -47.7799 382.651 -47.5494C382.835 -48.008 383.023 -48.4569 383.209 -48.9105C383.526 -49.1716 383.844 -49.4308 384.163 -49.6845ZM385.069 -52.1586C384.91 -51.7294 384.75 -51.3052 384.592 -50.8723C384.308 -50.6506 384.022 -50.4342 383.74 -50.2078C383.906 -50.6074 384.074 -51.0025 384.242 -51.3991C384.517 -51.6548 384.793 -51.9069 385.069 -52.1586ZM385.969 -54.5488C385.833 -54.1919 385.696 -53.8376 385.56 -53.479C385.324 -53.2685 385.09 -53.0474 384.855 -52.8318C384.997 -53.1623 385.137 -53.4985 385.28 -53.8253C385.51 -54.0684 385.739 -54.3101 385.969 -54.5488ZM386.845 -56.8029C386.742 -56.5438 386.641 -56.2764 386.538 -56.0153C386.368 -55.8415 386.198 -55.6707 386.028 -55.4952C386.135 -55.7342 386.241 -55.9766 386.349 -56.2132C386.514 -56.4108 386.679 -56.608 386.845 -56.8029ZM387.7 -58.9206L387.542 -58.5305C387.457 -58.4332 387.371 -58.3396 387.286 -58.2413L387.452 -58.5948C387.534 -58.706 387.617 -58.8097 387.7 -58.9206ZM137.566 164.614C137.896 165.054 138.229 165.504 138.559 165.944C138.418 165.8 138.279 165.662 138.138 165.516C137.785 165.062 137.425 164.589 137.07 164.128C137.234 164.286 137.403 164.458 137.566 164.614ZM133.245 158.792C133.816 159.575 134.381 160.338 134.947 161.104C134.668 160.832 134.388 160.555 134.108 160.28C133.52 159.511 132.946 158.781 132.354 158.001C132.654 158.274 132.946 158.523 133.245 158.792ZM129 152.957C129.762 154.002 130.526 155.057 131.286 156.1C130.886 155.731 130.473 155.325 130.07 154.95C129.328 153.963 128.579 152.956 127.834 151.963C128.224 152.298 128.612 152.626 129 152.957ZM124.728 147.009C125.566 148.189 126.404 149.374 127.23 150.523C126.791 150.142 126.361 149.792 125.92 149.405C125.061 148.244 124.192 147.056 123.322 145.864C123.789 146.241 124.263 146.638 124.728 147.009ZM120.34 140.826C121.294 142.177 122.239 143.5 123.189 144.839C122.686 144.432 122.183 144.026 121.678 143.609C120.731 142.31 119.789 141.027 118.837 139.713C119.34 140.092 119.84 140.457 120.34 140.826ZM115.915 134.47C116.953 135.971 117.993 137.478 119.017 138.941C118.469 138.53 117.91 138.082 117.359 137.661C116.357 136.265 115.341 134.828 114.326 133.397C114.859 133.765 115.385 134.113 115.915 134.47ZM111.427 127.976C112.54 129.6 113.638 131.181 114.741 132.777C114.188 132.397 113.644 132.048 113.088 131.657C111.974 130.083 110.862 128.516 109.737 126.911C110.3 127.264 110.867 127.633 111.427 127.976ZM106.884 121.282C108.051 123.006 109.216 124.727 110.371 126.42C109.794 126.062 109.216 125.696 108.635 125.326C107.492 123.689 106.343 122.033 105.191 120.369C105.758 120.687 106.319 120.975 106.884 121.282ZM102.278 114.423C103.508 116.27 104.734 118.102 105.95 119.905C105.355 119.577 104.755 119.224 104.158 118.883C102.96 117.144 101.75 115.368 100.537 113.583C101.118 113.868 101.699 114.151 102.278 114.423ZM97.5996 107.387C98.8807 109.323 100.152 111.23 101.425 113.141C100.835 112.857 100.247 112.582 99.6552 112.287C98.3871 110.421 97.1275 108.582 95.8501 106.689C96.435 106.931 97.0166 107.157 97.5996 107.387ZM92.8937 100.192C94.2108 102.219 95.5323 104.258 96.8303 106.23C96.2342 105.989 95.6336 105.725 95.0355 105.472C93.7464 103.552 92.4388 101.578 91.1323 99.6064C91.7195 99.8026 92.3081 100.007 92.8937 100.192ZM88.0826 92.7893C89.4593 94.922 90.8182 97.0021 92.1836 99.1027C91.591 98.9097 90.9979 98.7141 90.4035 98.5109C89.0564 96.4777 87.7103 94.4496 86.3502 92.3782C86.9285 92.5224 87.5052 92.6543 88.0826 92.7893ZM83.2502 85.2351C84.6568 87.4434 86.0592 89.6404 87.448 91.7978C86.8652 91.6568 86.2838 91.5302 85.6996 91.3814C84.3162 89.2704 82.9256 87.138 81.5272 84.9832C82.1024 85.0765 82.6757 85.1504 83.2502 85.2351ZM379.269 -27.9005C379.077 -27.1453 378.884 -26.3925 378.693 -25.6319C378.103 -25.6103 377.512 -25.583 376.922 -25.5529C377.127 -26.2762 377.332 -26.999 377.539 -27.7131C378.115 -27.7789 378.692 -27.8437 379.269 -27.9005ZM380.056 -30.9553C379.864 -30.2212 379.674 -29.4816 379.484 -28.7419C378.917 -28.6864 378.351 -28.6226 377.786 -28.5576C377.992 -29.2637 378.199 -29.964 378.407 -30.6643C378.956 -30.7648 379.505 -30.8657 380.056 -30.9553ZM380.848 -33.9566C380.658 -33.2468 380.47 -32.5245 380.281 -31.808C379.74 -31.7214 379.201 -31.6257 378.661 -31.5289C378.868 -32.2194 379.077 -32.8985 379.286 -33.5816C379.806 -33.7115 380.327 -33.8356 380.848 -33.9566ZM381.659 -36.9206C381.467 -36.2263 381.276 -35.5295 381.087 -34.8292C380.576 -34.7134 380.066 -34.5965 379.557 -34.4705C379.761 -35.1374 379.967 -35.8007 380.174 -36.4619C380.668 -36.619 381.164 -36.7699 381.659 -36.9206ZM382.481 -39.849C382.288 -39.1719 382.095 -38.5002 381.904 -37.8163C381.423 -37.6712 380.942 -37.5213 380.462 -37.3714C380.664 -38.01 380.865 -38.6537 381.069 -39.286C381.539 -39.4774 382.009 -39.6691 382.481 -39.849ZM383.303 -42.7052C383.115 -42.0627 382.928 -41.4165 382.742 -40.7673C382.287 -40.5956 381.833 -40.4158 381.38 -40.2347C381.582 -40.8553 381.784 -41.4726 381.988 -42.0865C382.425 -42.2982 382.864 -42.5005 383.303 -42.7052ZM384.136 -45.5245C383.951 -44.9106 383.769 -44.2833 383.586 -43.663C383.162 -43.467 382.738 -43.2752 382.316 -43.0734C382.514 -43.6629 382.714 -44.2423 382.913 -44.8243C383.32 -45.0599 383.727 -45.2981 384.136 -45.5245ZM384.983 -48.2756C384.803 -47.6975 384.624 -47.115 384.445 -46.5294C384.052 -46.3134 383.659 -46.0873 383.267 -45.8625C383.462 -46.4248 383.66 -46.9818 383.857 -47.5387C384.231 -47.7908 384.607 -48.032 384.983 -48.2756ZM385.841 -50.9853C385.664 -50.4337 385.485 -49.8871 385.309 -49.3288C384.956 -49.1025 384.602 -48.8776 384.25 -48.6453C384.434 -49.1578 384.617 -49.6726 384.802 -50.1807C385.148 -50.4505 385.494 -50.7237 385.841 -50.9853ZM386.692 -53.5976C386.528 -53.1014 386.364 -52.6047 386.201 -52.1039C385.882 -51.8674 385.564 -51.6249 385.247 -51.3796C385.424 -51.8558 385.599 -52.3364 385.777 -52.8075C386.08 -53.0767 386.387 -53.3327 386.692 -53.5976ZM387.552 -56.1578C387.401 -55.7154 387.252 -55.2623 387.102 -54.8159C386.825 -54.5811 386.55 -54.3412 386.274 -54.1023C386.435 -54.5196 386.596 -54.9359 386.758 -55.3492C387.023 -55.6192 387.286 -55.8949 387.552 -56.1578ZM388.408 -58.597C388.277 -58.2275 388.147 -57.8562 388.017 -57.4829C387.791 -57.2637 387.564 -57.0509 387.339 -56.8279C387.48 -57.1801 387.622 -57.5248 387.764 -57.8736C387.978 -58.118 388.193 -58.357 388.408 -58.597ZM389.256 -60.948C389.153 -60.6665 389.049 -60.39 388.946 -60.1065C388.776 -59.9202 388.609 -59.7269 388.44 -59.538C388.551 -59.8054 388.665 -60.0641 388.776 -60.328C388.936 -60.5348 389.096 -60.7443 389.256 -60.948ZM390.033 -63.0495C389.983 -62.9186 389.935 -62.7827 389.885 -62.6504L389.634 -62.3402C389.684 -62.456 389.734 -62.5768 389.784 -62.6923L390.033 -63.0495ZM145.022 173.365L146.021 174.708L145.659 174.328C145.322 173.891 144.981 173.441 144.644 173.003C144.771 173.128 144.895 173.241 145.022 173.365ZM140.784 167.589C141.35 168.369 141.92 169.16 142.479 169.924C142.19 169.635 141.893 169.325 141.603 169.034C141.042 168.294 140.477 167.539 139.91 166.78C140.202 167.054 140.493 167.318 140.784 167.589ZM136.504 161.692C137.248 162.726 137.977 163.718 138.717 164.741C138.361 164.405 138.016 164.102 137.659 163.761C136.89 162.729 136.123 161.707 135.351 160.667C135.735 161.008 136.122 161.357 136.504 161.692ZM132.276 155.737C133.085 156.879 133.896 158.031 134.698 159.155C134.249 158.754 133.803 158.365 133.352 157.957C132.537 156.846 131.711 155.7 130.887 154.566C131.349 154.951 131.817 155.36 132.276 155.737ZM127.813 149.404C128.764 150.767 129.704 152.1 130.645 153.436C130.14 153.014 129.629 152.568 129.122 152.136C128.196 150.857 127.277 149.594 126.344 148.291C126.838 148.675 127.321 149.026 127.813 149.404ZM123.382 143.008C124.418 144.508 125.454 146.005 126.484 147.486C125.946 147.066 125.403 146.63 124.86 146.199C123.839 144.767 122.81 143.313 121.782 141.86C122.316 142.247 122.85 142.63 123.382 143.008ZM118.928 136.499C120.002 138.082 121.074 139.664 122.133 141.206C121.579 140.806 121.03 140.425 120.472 140.014C119.399 138.487 118.313 136.923 117.225 135.355C117.791 135.729 118.365 136.134 118.928 136.499ZM114.3 129.674C115.478 131.423 116.64 133.125 117.81 134.849C117.227 134.466 116.639 134.058 116.053 133.663C114.906 132.007 113.767 130.378 112.611 128.699C113.178 129.039 113.736 129.345 114.3 129.674ZM109.719 122.788C110.929 124.616 112.141 126.449 113.335 128.231C112.748 127.883 112.162 127.537 111.572 127.177C110.38 125.434 109.17 123.642 107.962 121.854C108.548 122.166 109.136 122.488 109.719 122.788ZM105.019 115.679C106.293 117.62 107.554 119.524 108.815 121.429C108.221 121.116 107.626 120.803 107.029 120.478C105.783 118.636 104.537 116.788 103.279 114.907C103.862 115.177 104.439 115.421 105.019 115.679ZM100.291 108.424C101.61 110.457 102.925 112.475 104.231 114.47C103.632 114.199 103.029 113.908 102.426 113.625C101.129 111.68 99.8261 109.72 98.5166 107.741C99.1084 107.97 99.7014 108.206 100.291 108.424ZM95.4882 100.972C96.846 103.091 98.2015 105.204 99.5418 107.274C98.9444 107.049 98.3472 106.821 97.7473 106.584C96.4255 104.578 95.0859 102.523 93.7453 100.466C94.3284 100.646 94.9071 100.801 95.4882 100.972ZM90.6203 93.3629C92.0298 95.5789 93.4223 97.7454 94.8204 99.9285C94.2286 99.7507 93.6373 99.5767 93.0435 99.3873C91.6519 97.2525 90.2704 95.1466 88.8669 92.975C89.4519 93.1085 90.0368 93.2389 90.6203 93.3629ZM85.7246 85.5836C87.1599 87.8752 88.598 90.1742 90.0109 92.403C89.4197 92.2738 88.8254 92.1211 88.2327 91.9831C86.8306 89.8079 85.4089 87.5762 83.9861 85.3428C84.5659 85.425 85.1459 85.5093 85.7246 85.5836ZM381.434 -28.0872C381.256 -27.2925 381.079 -26.4907 380.902 -25.689C380.302 -25.6769 379.701 -25.6683 379.102 -25.6505C379.295 -26.4207 379.491 -27.1818 379.687 -27.9456C380.268 -27.9987 380.851 -28.0402 381.434 -28.0872ZM382.157 -31.2699C381.978 -30.4931 381.801 -29.7065 381.624 -28.922C381.049 -28.8761 380.474 -28.8333 379.9 -28.7816C380.094 -29.5325 380.289 -30.2763 380.485 -31.0193C381.041 -31.1057 381.599 -31.1907 382.157 -31.2699ZM382.894 -34.4132C382.713 -33.6514 382.533 -32.8873 382.354 -32.1179C381.805 -32.0412 381.257 -31.9571 380.709 -31.8713C380.903 -32.6024 381.097 -33.3326 381.292 -34.0559C381.825 -34.1791 382.359 -34.3009 382.894 -34.4132ZM383.637 -37.4972C383.456 -36.7569 383.275 -36.0194 383.096 -35.2724C382.573 -35.164 382.052 -35.0475 381.53 -34.9296C381.724 -35.6418 381.918 -36.3566 382.113 -37.0607C382.62 -37.2124 383.129 -37.3547 383.637 -37.4972ZM384.391 -40.5471C384.21 -39.8278 384.031 -39.1036 383.852 -38.3763C383.357 -38.2387 382.86 -38.1046 382.366 -37.9589C382.56 -38.65 382.755 -39.3371 382.951 -40.0215C383.431 -40.1996 383.91 -40.3767 384.391 -40.5471ZM385.153 -43.54C384.974 -42.8503 384.799 -42.1506 384.622 -41.4528C384.151 -41.2876 383.681 -41.1135 383.212 -40.9383C383.406 -41.6104 383.603 -42.2704 383.799 -42.9344C384.249 -43.1409 384.701 -43.3437 385.153 -43.54ZM385.932 -46.4833C385.753 -45.8154 385.575 -45.1448 385.398 -44.4695C384.958 -44.2803 384.519 -44.0912 384.082 -43.8932C384.273 -44.5346 384.465 -45.1737 384.659 -45.8095C385.082 -46.0383 385.507 -46.2616 385.932 -46.4833ZM386.72 -49.3764C386.543 -48.7357 386.365 -48.1007 386.189 -47.4524C385.78 -47.242 385.373 -47.0227 384.965 -46.8044C385.152 -47.4126 385.338 -48.0269 385.527 -48.6279C385.924 -48.8818 386.322 -49.132 386.72 -49.3764ZM387.513 -52.2036C387.341 -51.6006 387.17 -50.9929 386.999 -50.3846C386.622 -50.1561 386.244 -49.9275 385.868 -49.6901C386.052 -50.2672 386.235 -50.8419 386.421 -51.4115C386.785 -51.6778 387.148 -51.943 387.513 -52.2036ZM388.313 -54.9651C388.149 -54.4099 387.988 -53.8426 387.825 -53.2806C387.477 -53.0358 387.131 -52.7806 386.785 -52.5271C386.964 -53.0713 387.147 -53.6064 387.328 -54.1452C387.655 -54.4233 387.984 -54.6948 388.313 -54.9651ZM389.13 -57.6667C388.972 -57.1483 388.813 -56.6283 388.656 -56.1038C388.349 -55.8561 388.041 -55.6152 387.736 -55.3603C387.904 -55.853 388.075 -56.3342 388.245 -56.8201C388.54 -57.1033 388.834 -57.3889 389.13 -57.6667ZM389.944 -60.274C389.798 -59.8153 389.65 -59.3629 389.506 -58.8988C389.24 -58.6542 388.975 -58.3998 388.711 -58.1465C388.868 -58.5876 389.024 -59.0294 389.182 -59.4665C389.435 -59.7422 389.69 -60.0044 389.944 -60.274ZM390.755 -62.7991C390.627 -62.4109 390.501 -62.0183 390.374 -61.626C390.158 -61.4001 389.943 -61.1718 389.727 -60.9438C389.859 -61.3014 389.99 -61.6646 390.123 -62.0188C390.334 -62.2778 390.543 -62.5442 390.755 -62.7991ZM391.546 -65.1609C391.451 -64.8808 391.357 -64.5957 391.262 -64.3136C391.108 -64.1323 390.952 -63.9584 390.798 -63.7737C390.899 -64.0364 391.001 -64.2994 391.102 -64.559C391.249 -64.7628 391.398 -64.9598 391.546 -65.1609ZM392.327 -67.4084L392.169 -66.9599C392.089 -66.8544 392.01 -66.7429 391.93 -66.6353L392.097 -67.0467C392.174 -67.1654 392.25 -67.2894 392.327 -67.4084ZM152.514 182.283C152.882 182.786 153.24 183.26 153.606 183.757L153.369 183.504L152.197 181.97L152.514 182.283ZM148.377 176.578C148.942 177.357 149.513 178.148 150.078 178.925C149.815 178.657 149.555 178.402 149.291 178.132C148.711 177.36 148.121 176.559 147.537 175.773C147.816 176.041 148.098 176.315 148.377 176.578ZM144.148 170.699C144.815 171.64 145.48 172.576 146.138 173.494C145.79 173.157 145.447 172.837 145.097 172.495C144.377 171.522 143.667 170.574 142.941 169.583C143.34 169.946 143.75 170.341 144.148 170.699ZM139.761 164.506C140.585 165.671 141.407 166.831 142.229 167.99C141.782 167.58 141.33 167.16 140.881 166.742C140.088 165.653 139.288 164.545 138.493 163.451C138.921 163.818 139.336 164.144 139.761 164.506ZM135.359 158.191C136.296 159.548 137.237 160.917 138.162 162.238C137.652 161.797 137.127 161.31 136.614 160.861C135.713 159.605 134.799 158.31 133.884 157.017C134.378 157.416 134.867 157.8 135.359 158.191ZM130.895 151.738C131.919 153.232 132.926 154.675 133.942 156.146C133.424 155.726 132.915 155.342 132.394 154.913C131.354 153.444 130.325 152.004 129.278 150.514C129.816 150.92 130.36 151.343 130.895 151.738ZM126.412 145.128C127.487 146.718 128.562 148.309 129.626 149.868C129.066 149.446 128.505 149.023 127.941 148.591C126.889 147.084 125.824 145.538 124.76 143.997C125.313 144.382 125.862 144.754 126.412 145.128ZM121.811 138.289C122.977 140.037 124.136 141.762 125.289 143.472C124.703 143.066 124.104 142.615 123.514 142.197C122.384 140.557 121.252 138.908 120.109 137.231C120.679 137.595 121.244 137.937 121.811 138.289ZM117.199 131.349C118.404 133.167 119.604 134.972 120.8 136.767C120.219 136.4 119.647 136.065 119.062 135.688C117.856 133.912 116.645 132.126 115.429 130.326C116.018 130.663 116.613 131.023 117.199 131.349ZM112.498 124.174C113.751 126.1 115.009 128.036 116.245 129.912C115.646 129.574 115.044 129.221 114.443 128.87C113.228 127.062 111.993 125.196 110.761 123.338C111.344 123.632 111.917 123.89 112.498 124.174ZM107.737 116.859C109.057 118.902 110.358 120.89 111.666 122.898C111.067 122.599 110.465 122.296 109.863 121.985C108.561 120.023 107.266 118.081 105.953 116.085C106.547 116.344 107.144 116.613 107.737 116.859ZM102.937 109.361C104.286 111.477 105.635 113.593 106.968 115.659C106.368 115.403 105.767 115.144 105.165 114.875C103.849 112.869 102.517 110.819 101.185 108.766C101.772 108.979 102.352 109.16 102.937 109.361ZM98.0802 101.72C99.4733 103.924 100.858 106.107 102.235 108.266C101.637 108.056 101.038 107.842 100.438 107.62C99.0685 105.508 97.6894 103.368 96.303 101.208C96.8948 101.377 97.49 101.562 98.0802 101.72ZM93.1398 93.8658C94.5771 96.1603 96.0061 98.4318 97.4294 100.685C96.8329 100.521 96.2334 100.34 95.6355 100.164C94.2234 97.9626 92.8086 95.7537 91.3835 93.5151C91.9692 93.6347 92.555 93.755 93.1398 93.8658ZM88.1661 85.8607C89.6287 88.2278 91.0947 90.6014 92.5363 92.9076C91.9475 92.7921 91.3589 92.679 90.7687 92.5542C89.3399 90.3035 87.8851 87.9795 86.4334 85.6646C87.0113 85.7335 87.589 85.7996 88.1661 85.8607ZM93.2855 93.0559C91.8249 90.7228 90.3441 88.3298 88.8634 85.9406C142.345 91.3139 192.547 61.0021 242.691 30.7266C273.141 12.3418 303.569 -6.02637 334.696 -16.3769C307.835 -4.63025 281.646 13.6386 255.305 32.0168C203.92 67.8659 151.953 104.111 93.2855 93.0559ZM98.2232 100.909C96.7882 98.6388 95.3404 96.3325 93.8886 94.0159C152.336 104.684 204.142 68.536 255.371 32.7954C283.145 13.4177 310.751 -5.83428 339.151 -17.4403C314.379 -4.55362 290.361 14.691 266.114 34.1255C214.383 75.5917 161.605 117.901 98.2232 100.909ZM139.865 163.668C138.878 162.263 137.886 160.846 136.887 159.408C235.011 236.068 280.327 140.58 322.878 50.8559C335.147 24.9857 347.188 -0.395315 360.203 -21.0132M383.612 -28.2409C383.447 -27.4043 383.285 -26.5614 383.122 -25.7167C382.513 -25.7156 381.905 -25.7066 381.297 -25.6966C381.476 -26.508 381.656 -27.3166 381.838 -28.1199C382.429 -28.1649 383.02 -28.2055 383.612 -28.2409ZM384.273 -31.5452C384.106 -30.7212 383.939 -29.9007 383.775 -29.0697C383.192 -29.0358 382.609 -28.9978 382.027 -28.9543C382.208 -29.7485 382.387 -30.545 382.569 -31.3311C383.136 -31.4087 383.705 -31.4761 384.273 -31.5452ZM384.943 -34.8118C384.776 -34.0046 384.608 -33.1988 384.442 -32.3839C383.884 -32.3179 383.326 -32.2546 382.769 -32.1803C382.95 -32.9545 383.131 -33.7287 383.314 -34.4944C383.856 -34.6036 384.399 -34.7107 384.943 -34.8118ZM385.623 -38.0304C385.454 -37.2477 385.288 -36.4574 385.122 -35.6656C384.587 -35.5671 384.052 -35.4608 383.518 -35.3541C383.701 -36.114 383.887 -36.8641 384.071 -37.6168C384.588 -37.7595 385.104 -37.899 385.623 -38.0304ZM386.313 -41.1975C386.144 -40.4369 385.978 -39.6663 385.812 -38.8962C385.302 -38.7684 384.794 -38.6345 384.286 -38.4958C384.471 -39.2392 384.657 -39.9759 384.843 -40.7123C385.332 -40.8802 385.823 -41.037 386.313 -41.1975ZM387.022 -44.3322C386.851 -43.5849 386.68 -42.839 386.511 -42.0839C386.031 -41.9285 385.551 -41.7752 385.072 -41.612C385.254 -42.323 385.436 -43.0351 385.62 -43.738C386.086 -43.9401 386.553 -44.142 387.022 -44.3322ZM387.734 -47.3895C387.564 -46.6727 387.395 -45.9601 387.227 -45.2366C386.773 -45.0539 386.32 -44.8614 385.867 -44.6685C386.049 -45.3606 386.231 -46.0553 386.415 -46.7396C386.853 -46.9625 387.294 -47.1753 387.734 -47.3895ZM388.462 -50.4209C388.292 -49.7287 388.125 -49.0298 387.957 -48.3298C387.531 -48.1239 387.105 -47.9218 386.681 -47.7078C386.861 -48.3696 387.044 -49.0261 387.226 -49.6802C387.638 -49.9303 388.048 -50.1831 388.462 -50.4209ZM389.193 -53.3632C389.028 -52.7129 388.866 -52.0498 388.703 -51.3927C388.302 -51.1647 387.903 -50.9272 387.505 -50.6873C387.687 -51.3306 387.873 -51.9607 388.057 -52.5966C388.434 -52.8597 388.814 -53.1082 389.193 -53.3632ZM389.948 -56.2767C389.784 -55.6492 389.619 -55.0224 389.457 -54.3886C389.091 -54.1459 388.726 -53.901 388.361 -53.6519C388.536 -54.2485 388.712 -54.8411 388.889 -55.4314C389.241 -55.7156 389.594 -56.0009 389.948 -56.2767ZM390.704 -59.0968C390.545 -58.5127 390.384 -57.934 390.227 -57.3435C389.895 -57.0896 389.564 -56.833 389.235 -56.571C389.403 -57.1253 389.57 -57.6859 389.741 -58.2344C390.06 -58.5266 390.382 -58.8117 390.704 -59.0968ZM391.467 -61.8568C391.317 -61.3272 391.169 -60.7912 391.021 -60.2559C390.723 -59.9962 390.427 -59.7253 390.13 -59.4581C390.291 -59.9678 390.452 -60.4791 390.615 -60.9836C390.898 -61.2792 391.182 -61.569 391.467 -61.8568ZM392.236 -64.5279C392.097 -64.0575 391.962 -63.5766 391.825 -63.1014C391.57 -62.8483 391.313 -62.6025 391.059 -62.3436C391.207 -62.7928 391.356 -63.2346 391.505 -63.6788C391.749 -63.9623 391.991 -64.2492 392.236 -64.5279ZM393.007 -67.0959C392.888 -66.704 392.768 -66.3117 392.649 -65.9153C392.435 -65.6757 392.222 -65.4287 392.009 -65.1816C392.145 -65.5758 392.283 -65.9568 392.419 -66.3465C392.614 -66.6025 392.812 -66.8443 393.007 -67.0959ZM393.769 -69.5535C393.672 -69.2462 393.572 -68.9464 393.476 -68.6368C393.324 -68.4457 393.173 -68.2506 393.023 -68.0592C393.123 -68.338 393.224 -68.6152 393.325 -68.8938C393.474 -69.1112 393.62 -69.3377 393.769 -69.5535ZM394.477 -71.7638C394.43 -71.6222 394.385 -71.4755 394.339 -71.3339C394.265 -71.2294 394.191 -71.1286 394.117 -71.0241C394.166 -71.1532 394.214 -71.287 394.263 -71.4158L394.477 -71.7638ZM81.401 77.635C81.9731 77.6536 82.545 77.6788 83.1167 77.6903C84.6301 80.1579 86.1164 82.5477 87.6122 84.9652C87.0321 84.9013 86.4518 84.8417 85.8705 84.7676C84.383 82.3976 82.9044 80.0507 81.401 77.635ZM79.0301 77.5417C79.5989 77.57 80.1677 77.5924 80.7364 77.6134C82.2214 80.0022 83.6859 82.3318 85.1566 84.6798C84.5711 84.6023 83.9843 84.508 83.3979 84.423C81.9468 82.1429 80.4957 79.8632 79.0301 77.5417ZM76.6398 77.398C77.2084 77.4377 77.7767 77.4685 78.3451 77.4993C79.7915 79.7929 81.2302 82.0638 82.6619 84.3146C82.0791 84.2261 81.4967 84.138 80.9129 84.0403C79.499 81.8565 78.0691 79.627 76.6398 77.398ZM74.2284 77.2042C74.8007 77.255 75.3734 77.3123 75.9453 77.3554C77.3487 79.5454 78.7597 81.7581 80.148 83.9035C79.5654 83.8029 78.983 83.7002 78.3994 83.5901C77.0231 81.503 75.6203 79.3385 74.2284 77.2042ZM71.8016 76.9749C72.3712 77.0356 72.9407 77.0887 73.5101 77.1415C74.8886 79.256 76.2711 81.385 77.6338 83.4517C77.0528 83.3388 76.4698 83.2051 75.8883 83.0833C74.5331 81.0692 73.1728 79.0379 71.8016 76.9749ZM69.3794 76.694C69.9371 76.7641 70.4951 76.8252 71.0529 76.8881C72.4075 78.9289 73.7445 80.9171 75.0842 82.9116C74.5039 82.7859 73.9236 82.6664 73.3425 82.5318C72.0367 80.6319 70.7014 78.6415 69.3794 76.694ZM66.9147 76.3532C67.4823 76.4366 68.0506 76.5264 68.618 76.6018C69.9024 78.4965 71.2106 80.4661 72.4805 82.3187C71.9127 82.1821 71.3447 82.0407 70.7762 81.8956C69.4992 80.0806 68.2065 78.2144 66.9147 76.3532ZM64.4401 75.9729C65.0023 76.0668 65.5648 76.1534 66.1271 76.239C67.3842 78.0537 68.6539 79.9074 69.8966 81.6775C69.3288 81.5285 68.7594 81.3623 68.1904 81.2041C66.9463 79.4801 65.698 77.7419 64.4401 75.9729ZM61.9447 75.5359C62.5029 75.6408 63.0615 75.734 63.6197 75.83C64.8386 77.5468 66.0589 79.2683 67.2643 80.9435C66.7075 80.7837 66.1518 80.6353 65.5942 80.468C64.3799 78.8303 63.1721 77.2159 61.9447 75.5359ZM59.4227 75.0308C59.9809 75.1472 60.5385 75.2675 61.0965 75.3753C62.2749 76.9919 63.4448 78.5802 64.6112 80.1551C64.0554 79.9839 63.4996 79.8054 62.943 79.6253C61.7682 78.0892 60.6093 76.6055 59.4227 75.0308ZM56.9244 74.4886C57.4639 74.6124 58.0037 74.7347 58.5432 74.8504C59.6825 76.366 60.8045 77.8259 61.9323 79.3039C61.3806 79.1195 60.8269 78.917 60.2746 78.7254C59.1581 77.3133 58.0502 75.933 56.9244 74.4886ZM54.4203 73.8969C54.9345 74.0265 55.4488 74.1398 55.9628 74.2618C57.0498 75.659 58.1128 76.9759 59.1897 78.3406C58.6585 78.1497 58.1282 77.9712 57.5961 77.7732C56.5406 76.4919 55.4846 75.2085 54.4203 73.8969ZM51.8822 73.2233C52.3869 73.3607 52.8915 73.4978 53.3961 73.6276C54.4097 74.8829 55.4064 76.0796 56.4137 77.3106C55.8915 77.111 55.3694 76.9071 54.8468 76.6985C53.8638 75.5599 52.873 74.3902 51.8822 73.2233ZM49.3469 72.5033C49.8336 72.6476 50.3205 72.7974 50.8072 72.9351C51.7423 74.0434 52.6697 75.1216 53.5991 76.2087C53.0907 76.0004 52.5804 75.7706 52.0714 75.5555C51.1696 74.5643 50.2551 73.5211 49.3469 72.5033ZM46.825 71.7425C47.2754 71.8851 47.7252 72.0142 48.1751 72.152C49.0139 73.097 49.851 74.0367 50.6847 74.9628C50.2267 74.7632 49.769 74.5674 49.3105 74.3616C48.4867 73.5085 47.6535 72.6169 46.825 71.7425ZM44.277 70.894C44.6915 71.0355 45.1064 71.1711 45.5209 71.3081C46.2415 72.074 46.9653 72.8537 47.6822 73.6054C47.2928 73.4242 46.9036 73.2464 46.5137 73.0614C45.7689 72.3427 45.0256 71.6292 44.277 70.894ZM41.8168 70.0253C42.1598 70.1502 42.5027 70.2806 42.8457 70.402C43.4145 70.9663 43.989 71.556 44.5557 72.1102C44.2629 71.9667 43.9697 71.8157 43.6768 71.6688C43.0564 71.1198 42.4394 70.5859 41.8168 70.0253ZM39.5728 69.2003C39.7549 69.2714 39.9371 69.3349 40.1191 69.4036C40.4868 69.7393 40.8581 70.0916 41.2244 70.4227C41.0874 70.3504 40.95 70.2716 40.8127 70.1993L39.5728 69.2003ZM380.404 -21.5887C381.044 -21.5655 381.685 -21.5392 382.326 -21.5064C377.21 5.9839 373.044 37.1255 368.801 68.8668C360.545 130.626 351.988 194.64 335.52 238.158C311.378 301.955 270.17 321.759 187.886 226.15C267.005 312.739 307.07 288.592 331.392 223.887C347.055 182.221 356.173 123.769 364.99 67.2417C369.866 35.977 374.652 5.30701 380.404 -21.5887ZM378.117 -21.6669C378.75 -21.6509 379.384 -21.6243 380.017 -21.6015C374.289 5.2743 369.513 35.871 364.649 67.0606C355.845 123.504 346.74 181.871 331.128 223.405C306.101 289.983 264.287 313.344 180.058 216.426C261.372 304.414 302.117 276.206 327.431 208.382C342.104 169.066 351.576 116.466 360.759 65.4686C366.291 34.7478 371.719 4.61211 378.117 -21.6669ZM375.841 -21.6929C376.467 -21.6897 377.091 -21.684 377.717 -21.6719C371.35 4.57478 365.939 34.6211 360.425 65.2448C351.253 116.175 341.794 168.705 327.164 207.903C301.115 277.7 258.613 305.288 172.014 206.556C256.033 296.492 297.552 263.351 324.026 191.862C337.546 155.355 347.129 108.876 356.447 63.6854C362.666 33.5242 368.767 3.94664 375.841 -21.6929ZM373.574 -21.693C374.193 -21.6979 374.811 -21.7006 375.43 -21.6975C368.395 3.90135 362.316 33.3735 356.12 63.4204C346.814 108.558 337.242 154.982 323.76 191.386C296.657 264.573 253.702 297.387 165.143 198.125L164.749 197.608C251.467 288.849 293.629 249.486 321.383 173.905C333.522 140.848 342.898 100.88 352.043 61.8922C358.983 32.3064 365.791 3.2918 373.574 -21.693ZM371.322 -21.666C371.93 -21.6778 372.54 -21.6811 373.149 -21.6874C365.414 3.24656 358.635 32.1323 351.727 61.5833C342.592 100.527 333.227 140.45 321.116 173.433C293.042 249.881 250.144 289.084 160.945 192.623C160.557 192.109 160.178 191.624 159.787 191.105C248.422 281.091 290.774 233.649 319.85 153.74C330.283 125.07 339 92.238 347.537 60.0866C355.237 31.0867 362.791 2.64512 371.322 -21.666ZM369.077 -21.5903C369.676 -21.6132 370.274 -21.6372 370.873 -21.6525C362.403 2.59819 354.889 30.8925 347.231 59.7361C338.702 91.858 329.992 124.659 319.581 153.272C290.277 233.808 247.427 281.245 156.933 187.271C156.36 186.502 155.783 185.72 155.209 184.951C271.161 297.847 308.38 173.609 342.914 58.273C351.416 29.8748 359.759 2.02637 369.077 -21.5903ZM366.841 -21.4928C367.429 -21.5231 368.018 -21.55 368.607 -21.5744C359.361 1.97341 351.07 29.6546 342.62 57.8766C307.907 173.816 270.464 298.747 152.57 181.392C151.947 180.544 151.312 179.658 150.681 178.786C262.121 282.33 301.504 165.314 338.157 56.442C347.511 28.659 356.687 1.40936 366.841 -21.4928ZM364.622 -21.3653C365.195 -21.401 365.769 -21.433 366.343 -21.4643C356.278 1.35987 347.165 28.4179 337.879 56.0034C301.063 165.357 261.465 282.878 148.453 175.711C147.632 174.576 146.823 173.473 145.998 172.324C253.038 266.86 294.535 157.076 333.25 54.597C343.511 27.4366 353.577 0.800752 364.622 -21.3653ZM362.405 -21.1996C362.964 -21.2457 363.523 -21.2928 364.083 -21.3318C353.147 0.748502 343.162 27.1772 332.985 54.1149C294.135 156.95 252.488 267.188 144.243 169.853C143.321 168.559 142.387 167.234 141.456 165.916C244.015 251.395 287.487 148.814 328.166 52.7374C339.394 26.2181 350.411 0.205135 362.405 -21.1996ZM358.008 -20.7928C358.525 -20.846 359.042 -20.8985 359.559 -20.9493C346.704 -0.429323 334.788 24.6944 322.649 50.2902C279.966 140.292 234.489 236.085 135.474 157.365C134.42 155.847 133.365 154.324 132.306 152.789C226.021 220.849 273.035 132.372 317.353 48.9538C330.744 23.7468 343.89 -0.991494 358.008 -20.7928ZM355.821 -20.5428C356.315 -20.6042 356.809 -20.6673 357.304 -20.7215C343.375 -1.018 330.378 23.4369 317.142 48.3522C272.69 132.023 225.516 220.78 131.02 150.925C129.907 149.3 128.774 147.617 127.645 145.945C217.002 205.707 265.58 124.205 311.545 47.0286C326.156 22.4952 340.505 -1.59038 355.821 -20.5428ZM353.648 -20.2763C354.104 -20.3367 354.56 -20.3883 355.017 -20.445C339.931 -1.59116 325.77 22.1852 311.352 46.392C265.26 123.783 216.542 205.554 126.538 144.311C125.346 142.548 124.158 140.795 122.954 138.998C207.981 190.743 257.927 116.079 305.4 45.0771C321.348 21.2252 337.017 -2.20741 353.648 -20.2763ZM351.476 -19.9676C351.896 -20.0267 352.315 -20.0892 352.735 -20.1472C336.38 -2.17317 320.938 20.9136 305.227 44.4114C257.624 115.606 207.529 190.484 121.943 137.478C120.722 135.648 119.49 133.79 118.257 131.925C198.948 175.906 250.042 107.984 298.849 43.0961C316.267 19.9384 333.396 -2.82588 351.476 -19.9676ZM349.315 -19.6406C349.683 -19.7 350.051 -19.7614 350.419 -19.8173C332.672 -2.76261 315.824 19.6331 298.694 42.4064C249.755 107.471 198.513 175.6 117.338 130.544C116.058 128.605 114.764 126.627 113.467 124.64C189.843 161.214 241.854 99.9488 291.798 41.0877C310.856 18.6271 329.615 -3.47476 349.315 -19.6406ZM347.165 -19.2933C347.46 -19.3436 347.755 -19.3876 348.05 -19.4368C328.762 -3.34386 310.357 18.342 291.663 40.3723C241.583 99.3943 189.425 160.836 112.636 123.365C111.312 121.335 109.99 119.316 108.655 117.255C180.686 146.752 233.295 91.9712 284.127 39.0507C305.032 17.2873 325.635 -4.15987 347.165 -19.2933ZM345.005 -18.9083L345.615 -19.0191C324.603 -3.93792 304.45 17.0363 284.01 38.3153C233.036 91.3841 180.268 146.305 107.879 116.056C106.528 113.962 105.152 111.798 103.78 109.648C171.409 132.438 224.263 84.0615 275.671 36.983C298.672 15.919 321.385 -4.88006 345.005 -18.9083ZM342.875 -18.5131L343.041 -18.547C320.089 -4.53232 297.966 15.7216 275.572 36.2293C224.019 83.4399 171.011 131.956 103.079 108.552C101.677 106.356 100.272 104.152 98.8543 101.913C161.982 118.41 214.611 76.2411 266.197 34.8922C291.631 14.5069 316.812 -5.67693 342.875 -18.5131ZM227.359 28.7628C261.256 11.1389 295.4 -6.61153 330.153 -15.6245C300.586 -5.04646 271.622 12.4377 242.639 29.938C192.337 60.3077 141.976 90.7038 88.3098 85.0451C86.7989 82.6066 85.2961 80.1915 83.7656 77.6981C131.822 78.4321 179.342 53.729 227.359 28.7628ZM349.277 -20.4509L348.703 -20.3581L348.914 -20.5044C349.12 -20.5551 349.326 -20.6094 349.532 -20.6588L349.277 -20.4509ZM351.43 -20.7778C351.139 -20.7349 350.848 -20.6974 350.558 -20.6534C350.7 -20.7682 350.841 -20.8872 350.983 -21.0006L351.882 -21.2067L351.43 -20.7778ZM353.587 -21.084C353.221 -21.0352 352.855 -20.9799 352.489 -20.9283C352.69 -21.1173 352.892 -21.2997 353.094 -21.4852C353.452 -21.5647 353.812 -21.635 354.17 -21.7114C353.976 -21.5024 353.781 -21.2954 353.587 -21.084ZM355.75 -21.3508L354.508 -21.2006L355.184 -21.9226C355.597 -22.0091 356.01 -22.0986 356.424 -22.18C356.2 -21.9038 355.975 -21.629 355.75 -21.3508ZM357.928 -21.6019C357.471 -21.5534 357.014 -21.5025 356.557 -21.4492C356.8 -21.7461 357.041 -22.0467 357.284 -22.3398C357.735 -22.4244 358.186 -22.5106 358.637 -22.5924C358.4 -22.2646 358.164 -21.9327 357.928 -21.6019ZM360.112 -21.8218C359.62 -21.7752 359.128 -21.7234 358.636 -21.6736C358.893 -22.0311 359.152 -22.3824 359.41 -22.7367C359.889 -22.8204 360.368 -22.8973 360.847 -22.9769C360.602 -22.592 360.356 -22.2088 360.112 -21.8218ZM362.301 -22.0094C361.787 -21.9676 361.272 -21.933 360.758 -21.8877C361.013 -22.2867 361.267 -22.6928 361.523 -23.0888C362.031 -23.1736 362.54 -23.2585 363.05 -23.3349C362.8 -22.8959 362.55 -22.4535 362.301 -22.0094ZM364.507 -22.179C363.966 -22.1425 363.425 -22.0991 362.884 -22.0551C363.144 -22.515 363.405 -22.9668 363.666 -23.422C364.191 -23.498 364.716 -23.5731 365.241 -23.6443C364.996 -23.1578 364.751 -22.6685 364.507 -22.179ZM366.711 -22.3044C366.156 -22.2742 365.6 -22.2433 365.044 -22.2092C365.298 -22.7159 365.551 -23.2233 365.806 -23.7242C366.35 -23.7952 366.895 -23.8579 367.44 -23.9241C367.196 -23.3862 366.953 -22.8484 366.711 -22.3044ZM368.935 -22.4055C368.362 -22.3839 367.788 -22.3609 367.215 -22.3335C367.463 -22.888 367.712 -23.4361 367.96 -23.9852C368.519 -24.0524 369.078 -24.1192 369.637 -24.1771C369.402 -23.5909 369.169 -22.997 368.935 -22.4055ZM371.165 -22.4819C370.578 -22.468 369.992 -22.4442 369.406 -22.4214C369.645 -23.0242 369.886 -23.6257 370.127 -24.2232C370.698 -24.2787 371.269 -24.3343 371.84 -24.3837C371.615 -23.7508 371.39 -23.1189 371.165 -22.4819ZM373.404 -22.5115C372.807 -22.506 372.21 -22.5005 371.614 -22.4899C371.843 -23.1373 372.071 -23.7843 372.301 -24.4277C372.883 -24.475 373.467 -24.5155 374.049 -24.5576C373.833 -23.8783 373.618 -23.1976 373.404 -22.5115ZM375.657 -22.5172C375.048 -22.5209 374.438 -22.5207 373.829 -22.5158C374.047 -23.2127 374.268 -23.9 374.488 -24.5874C375.079 -24.6297 375.67 -24.6706 376.263 -24.703C376.06 -23.9789 375.859 -23.246 375.657 -22.5172ZM377.918 -22.4908C377.301 -22.5031 376.684 -22.5081 376.068 -22.5122C376.273 -23.2517 376.478 -23.9898 376.685 -24.7222C377.286 -24.7523 377.887 -24.78 378.489 -24.8022C378.298 -24.0339 378.107 -23.2654 377.918 -22.4908ZM380.19 -22.4189C379.567 -22.4419 378.942 -22.469 378.319 -22.4859C378.511 -23.267 378.702 -24.0456 378.895 -24.821C379.504 -24.841 380.113 -24.8508 380.721 -24.8629C380.543 -24.0521 380.366 -23.2385 380.19 -22.4189ZM382.478 -22.3214C381.844 -22.3542 381.21 -22.3811 380.577 -22.4049C380.755 -23.2338 380.935 -24.0515 381.116 -24.8716C381.731 -24.8834 382.347 -24.8931 382.963 -24.8949C382.8 -24.0412 382.639 -23.1818 382.478 -22.3214ZM449.835 -1.37619C427.146 -14.8267 404.849 -21.0913 382.857 -22.2985C383.02 -23.1663 383.184 -24.0316 383.349 -24.8924C404.972 -24.8871 427.08 -19.3584 449.896 -5.83186L450.029 -6.62594C427.219 -20.1483 405.12 -25.6901 383.508 -25.7132C383.672 -26.5659 383.836 -27.4183 384.002 -28.2619C405.239 -29.4669 427.148 -24.6846 450.09 -11.0841L450.223 -11.8788C427.291 -25.4735 405.394 -30.27 384.169 -29.0907C384.335 -29.9289 384.503 -30.7626 384.672 -31.5923C405.514 -34.0284 427.216 -30.0102 450.284 -16.3342L450.416 -17.1286C427.36 -30.7968 405.671 -34.8372 384.84 -32.4324C385.01 -33.2583 385.182 -34.0735 385.353 -34.8917C405.793 -38.584 427.283 -35.3353 450.477 -21.5839L450.61 -22.3791C427.432 -36.1192 405.956 -39.3959 385.532 -35.7458C385.701 -36.5455 385.871 -37.3394 386.042 -38.1316C406.072 -43.1082 427.345 -40.6634 450.671 -26.8354L450.803 -27.6292C427.499 -41.4457 406.244 -43.9212 386.231 -38.9985C386.401 -39.781 386.571 -40.5644 386.744 -41.3389C406.355 -47.6234 427.406 -45.9949 450.864 -32.0876L450.997 -32.8817C427.566 -46.7726 406.537 -48.4446 386.945 -42.227C387.117 -42.9882 387.288 -43.7494 387.462 -44.5018C406.645 -52.1186 427.466 -51.3241 451.058 -37.3377L451.19 -38.1321C427.631 -52.0995 406.833 -52.9449 387.671 -45.4072C387.844 -46.1495 388.019 -46.88 388.194 -47.6142C406.94 -56.5921 427.524 -56.6543 451.252 -42.5871L451.384 -43.3816C427.697 -57.4246 407.139 -57.4291 388.417 -48.5531C388.59 -49.2705 388.765 -49.9778 388.941 -50.6861C407.239 -61.0518 427.58 -61.9881 451.445 -47.84L451.578 -48.6341C427.764 -62.7521 407.454 -61.8959 389.182 -51.6572C389.353 -52.3419 389.524 -53.0271 389.698 -53.7038C407.541 -65.4862 427.633 -67.3218 451.639 -53.0898L451.771 -53.8845C427.832 -68.0763 407.777 -66.3531 389.965 -54.7316C390.133 -55.3777 390.299 -56.0288 390.469 -56.6682C407.846 -69.9002 427.683 -72.6574 451.832 -58.3402L451.965 -59.1347C427.897 -73.4036 408.104 -70.7768 390.76 -57.7453C390.928 -58.3679 391.098 -58.9872 391.268 -59.6028C408.166 -74.3018 427.737 -77.9906 452.026 -63.5917L452.158 -64.3844C427.966 -78.7269 408.444 -75.1993 391.581 -60.7421C391.744 -61.321 391.91 -61.886 392.074 -62.4582C408.485 -78.667 427.783 -83.33 452.22 -68.8429L452.352 -69.6369C428.041 -84.049 408.802 -79.5979 392.432 -63.7016C392.587 -64.2317 392.743 -64.7568 392.9 -65.2806C408.813 -83.0226 427.831 -88.667 452.413 -74.0926L452.546 -74.8874C428.123 -89.3658 409.177 -83.9806 393.311 -66.6362C393.452 -67.0972 393.591 -67.566 393.733 -68.0238C409.137 -87.3445 427.869 -94.0078 452.607 -79.3431L452.739 -80.1375C428.219 -94.674 409.579 -88.3692 394.231 -69.5806C394.353 -69.962 394.473 -70.3462 394.596 -70.7229C409.479 -91.6448 427.912 -99.3503 452.8 -84.5953L452.933 -85.3897C428.332 -99.9738 410.013 -92.7471 395.196 -72.531C395.294 -72.822 395.392 -73.1121 395.49 -73.401C409.837 -95.9353 427.962 -104.686 452.994 -89.8457L453.126 -90.6402C428.474 -105.254 410.496 -97.1253 396.224 -75.5248C396.276 -75.6722 396.33 -75.8176 396.382 -75.9636C410.185 -100.181 427.995 -110.031 453.187 -95.0958L453.32 -95.8903C428.855 -110.394 411.32 -101.677 397.655 -79.1719C410.858 -104.596 428.257 -115.241 453.381 -100.347L453.514 -101.14C429.564 -115.339 412.598 -106.503 399.594 -83.8218C412.132 -109.433 428.965 -120.188 453.575 -105.598L453.707 -106.393C430.291 -120.273 413.882 -111.375 401.508 -88.6302C413.414 -114.313 429.692 -125.123 453.768 -110.849L453.901 -111.643C427.338 -127.391 410.21 -112.871 397.979 -81.5686C397.289 -80.058 396.615 -78.4895 395.949 -76.8897C395.235 -75.4193 394.529 -73.9158 393.839 -72.3582C393.108 -70.945 392.39 -69.4809 391.682 -67.9865C390.908 -66.5861 390.143 -65.151 389.391 -63.6704C388.606 -62.3426 387.832 -60.9761 387.066 -59.5748C386.229 -58.2593 385.403 -56.9034 384.586 -55.513C383.74 -54.2754 382.901 -53.0098 382.071 -51.7057C381.172 -50.4925 380.283 -49.2353 379.4 -47.9544C378.463 -46.7883 377.533 -45.5931 376.611 -44.3635C375.669 -43.2883 374.734 -42.186 373.805 -41.0535C372.805 -40.0127 371.813 -38.934 370.825 -37.8367C369.773 -36.8431 368.727 -35.8215 367.687 -34.7728C366.604 -33.8506 365.525 -32.9078 364.453 -31.9347C363.347 -31.0912 362.245 -30.2301 361.147 -29.3408C359.996 -28.5635 358.849 -27.7682 357.705 -26.9463C356.512 -26.241 355.321 -25.5167 354.135 -24.7716C352.895 -24.1392 351.658 -23.4912 350.423 -22.8193C349.18 -22.2824 347.939 -21.7239 346.7 -21.1532C345.364 -20.6766 344.031 -20.1792 342.7 -19.6677C341.346 -19.2809 339.992 -18.8769 338.64 -18.4575C300.936 -10.3054 263.984 8.90325 227.321 27.965C179.145 53.0144 131.47 77.8018 83.2605 76.8699C57.9707 35.6232 30.267 -12.4765 -0.117113 -68.2165L-0.366045 -67.5589C29.8523 -12.1224 57.4192 35.7467 82.6048 76.8481C82.0306 76.8352 81.4562 76.8144 80.8817 76.7929C56.2272 37.1192 29.2542 -9.19491 -0.310629 -62.9678L-0.559688 -62.3067C28.8356 -8.84147 55.6694 37.2427 80.2169 76.7717C79.6421 76.7471 79.0669 76.7135 78.4914 76.6827C54.4742 38.5913 28.2349 -5.92755 -0.504919 -57.7173L-0.752483 -57.0536C27.8088 -5.58413 53.9026 38.7012 77.8064 76.6421C77.2347 76.6071 76.6628 76.5816 76.0911 76.539C52.7133 40.0417 27.2094 -2.67655 -0.699405 -52.4674L-0.945562 -51.8035C26.776 -2.34696 52.1282 40.1346 75.3849 76.4782C74.8084 76.433 74.2321 76.3795 73.6555 76.3264C50.9274 41.4416 26.1669 0.535976 -0.893657 -47.2179L-1.13861 -46.5507C25.7292 0.863226 50.3351 41.5338 72.9368 76.2637C72.3581 76.2063 71.7792 76.14 71.2002 76.0757C49.1291 42.8178 25.1118 3.71929 -1.0879 -41.9699L-1.33142 -41.2996C24.6625 4.03073 48.5166 42.8943 70.4515 75.9885C69.8913 75.9228 69.3313 75.8643 68.7708 75.7913C47.3395 44.151 24.0781 6.93374 -1.28218 -36.7197L-1.52447 -36.0454C23.6229 7.24161 46.7081 44.2002 67.9964 75.6786C67.4242 75.5998 66.8518 75.5162 66.2794 75.4295C45.5105 45.4403 23.0087 10.0787 -1.47611 -31.4716L-1.71746 -30.7943C22.5505 10.3882 44.8705 45.4876 65.4914 75.3157C64.9181 75.225 64.3449 75.1214 63.7715 75.0227C43.669 46.6955 21.9309 13.2027 -1.67127 -26.2227L-1.90971 -25.5426C21.463 13.4996 43.0068 46.7176 62.9511 74.8795C62.3842 74.7771 61.8169 74.6795 61.2493 74.5706C41.8154 47.9183 20.8457 16.3059 -1.86578 -20.9722L-2.1027 -20.2891C20.3655 16.5899 41.1263 47.9122 60.3897 74.3945C59.8242 74.2815 59.2587 74.1676 58.6933 74.0463C39.9363 49.0855 19.7457 19.376 -2.06053 -15.7237L-2.2947 -15.037C19.2598 19.6574 39.2325 49.0705 57.81 73.8601C57.2439 73.7344 56.677 73.5922 56.1108 73.459C38.0367 50.205 18.6333 22.4179 -2.25574 -10.4734L-2.48698 -9.78467C18.1339 22.6844 37.3023 50.1607 55.1818 73.239C54.6366 73.1055 54.0914 72.9689 53.546 72.8277C36.1443 51.2815 17.5315 25.4629 -2.45008 -5.2274L-2.67941 -4.5319C16.9929 25.6823 35.3459 51.2015 52.5189 72.5532C51.9979 72.4136 51.4767 72.2809 50.9553 72.134C34.2314 52.313 16.4158 28.4765 -2.64615 0.0222586L-2.87113 0.723207C15.8525 28.6744 33.3814 52.192 49.8502 71.8116C49.3406 71.6629 48.8307 71.5081 48.3209 71.3525C32.2861 53.2767 15.2804 31.4487 -2.84102 5.27041L-3.06315 5.97455C14.6981 31.6328 31.3928 53.1284 47.1496 71.0016C46.6558 70.8462 46.1619 70.6739 45.6681 70.5116C30.326 54.1966 14.1339 34.3902 -3.03714 10.5166L-3.2539 11.2296C13.5104 34.5375 29.3437 53.9787 44.3644 70.0779C43.9062 69.9222 43.4479 69.7676 42.9894 69.6058C28.3455 55.07 12.9747 37.3 -3.23358 15.7656L-3.44521 16.4847C12.294 37.3958 27.2439 54.7567 41.5072 69.0636C41.0924 68.9107 40.6774 68.7641 40.2622 68.6071C26.3285 55.872 11.7933 40.1615 -3.42994 21.0111L-3.63605 21.7397C11.036 40.1958 25.0661 55.4437 38.5388 67.9339C38.1847 67.7942 37.8304 67.6528 37.4759 67.5093C24.2669 56.5956 10.587 42.978 -3.62718 26.2578L-3.82546 26.9946C9.70708 42.9128 22.7512 55.9962 35.3706 66.641C35.1636 66.5533 34.9563 66.4601 34.7495 66.3706C22.2406 57.2837 9.39984 45.7976 -3.82594 31.5036L-4.0141 32.2491C8.12136 45.3643 19.9319 56.113 31.4605 64.8242C19.8291 57.6335 8.01162 48.3948 -4.02545 36.7484L-4.2018 37.509C6.11806 47.4928 16.2764 55.7079 26.2944 62.3895C16.1643 57.2051 5.99403 50.4866 -4.22653 41.9936L-4.38769 42.7642C7.76259 52.8625 19.8414 60.4657 31.8649 65.9531C33.8168 67.1513 35.7647 68.3007 37.7065 69.3854C39.769 70.8229 41.8189 72.1728 43.8639 73.4861C45.9731 75.1027 48.0725 76.6631 50.1576 78.1437C52.3628 79.9761 54.5557 81.7489 56.729 83.4246C58.951 85.3812 61.1499 87.2377 63.3377 89.0437C65.5559 91.094 67.7577 93.0746 69.9404 94.9796C72.2704 97.2342 74.5818 99.4176 76.8682 101.506C79.2842 103.93 81.6694 106.24 84.0357 108.482C86.3273 110.848 88.5968 113.136 90.8426 115.341C93.1287 117.768 95.3944 120.127 97.634 122.396C100.351 125.367 103.021 128.187 105.667 130.924C108.029 133.546 110.365 136.085 112.673 138.534C115.006 141.175 117.312 143.733 119.593 146.212C122.299 149.335 124.973 152.361 127.608 155.267C130.125 158.214 132.61 161.067 135.061 163.816C137.602 166.834 140.114 169.762 142.587 172.577C145.179 175.695 147.741 178.725 150.261 181.632C152.783 184.695 155.279 187.681 157.734 190.551C160.212 193.594 162.66 196.554 165.073 199.41C167.557 202.498 170.004 205.479 172.421 208.377C265.198 324.95 310.085 306.55 335.783 238.64C352.31 194.966 360.88 130.86 369.147 69.0103C373.398 37.2102 377.571 6.01536 382.705 -21.4835C404.705 -20.2913 427.009 -14.0357 449.703 -0.581769L449.835 -1.37619Z" fill="#1724AE" fill-opacity="0.1"/>
<path d="M-113 451.137C-83.3621 463.539 -23.7086 386.106 5.92979 398.508C35.5682 410.91 25.3368 509.023 54.9752 521.424C84.6136 533.826 145.527 456.921 175.165 469.323C204.803 481.724 194.498 579.806 224.136 592.208C253.775 604.61 307.775 539.439 337.413 551.841C367.052 564.243 360.992 649.473 390.63 661.875C420.268 674.277 468.489 606.688 498.128 619.09" stroke="#1724AE" stroke-opacity="0.1"/>
<path d="M-120 469.137C-90.3621 481.539 -30.7086 404.106 -1.07021 416.508C28.5682 428.91 18.3368 527.023 47.9752 539.424C77.6136 551.826 138.527 474.921 168.165 487.323C197.803 499.724 187.498 597.806 217.136 610.208C246.775 622.61 300.775 557.439 330.413 569.841C360.052 582.243 353.992 667.473 383.63 679.875C413.268 692.277 461.489 624.688 491.128 637.09" stroke="#1724AE" stroke-opacity="0.1"/>
<path d="M-124 481.137C-94.3621 493.539 -34.7086 416.106 -5.07021 428.508C24.5682 440.91 14.3368 539.023 43.9752 551.424C73.6136 563.826 134.527 486.921 164.165 499.323C193.803 511.724 183.498 609.806 213.136 622.208C242.775 634.61 296.775 569.439 326.413 581.841C356.052 594.243 349.992 679.473 379.63 691.875C409.268 704.277 457.489 636.688 487.128 649.09" stroke="#1724AE" stroke-opacity="0.1"/>
<path d="M-129 494.137C-99.3621 506.539 -39.7086 429.106 -10.0702 441.508C19.5682 453.91 9.33675 552.023 38.9752 564.424C68.6136 576.826 129.527 499.921 159.165 512.323C188.803 524.724 178.498 622.806 208.136 635.208C237.775 647.61 291.775 582.439 321.413 594.841C351.052 607.243 344.992 692.473 374.63 704.875C404.268 717.277 452.489 649.688 482.128 662.09" stroke="#1724AE" stroke-opacity="0.1"/>
<path d="M-133 507.137C-103.362 519.539 -43.7086 442.106 -14.0702 454.508C15.5682 466.91 5.33675 565.023 34.9752 577.424C64.6136 589.826 125.527 512.921 155.165 525.323C184.803 537.724 174.498 635.806 204.136 648.208C233.775 660.61 287.775 595.439 317.413 607.841C347.052 620.243 340.992 705.473 370.63 717.875C400.268 730.277 448.489 662.688 478.128 675.09" stroke="#1724AE" stroke-opacity="0.1"/>
<path d="M-138 521.137C-108.362 533.539 -48.7086 456.106 -19.0702 468.508C10.5682 480.91 0.336751 579.023 29.9752 591.424C59.6136 603.826 120.527 526.921 150.165 539.323C179.803 551.724 169.498 649.806 199.136 662.208C228.775 674.61 282.775 609.439 312.413 621.841C342.052 634.243 335.992 719.473 365.63 731.875C395.268 744.277 443.489 676.688 473.128 689.09" stroke="#1724AE" stroke-opacity="0.1"/>
<path d="M-138 538.137C-108.362 550.539 -48.7086 473.106 -19.0702 485.508C10.5682 497.91 0.336751 596.023 29.9752 608.424C59.6136 620.826 120.527 543.921 150.165 556.323C179.803 568.724 169.498 666.806 199.136 679.208C228.775 691.61 282.775 626.439 312.413 638.841C342.052 651.243 335.992 736.473 365.63 748.875C395.268 761.277 443.489 693.688 473.128 706.09" stroke="#1724AE" stroke-opacity="0.1"/>
<path d="M-144 556.137C-114.362 568.539 -54.7086 491.106 -25.0702 503.508C4.5682 515.91 -5.66325 614.023 23.9752 626.424C53.6136 638.826 114.527 561.921 144.165 574.323C173.803 586.724 163.498 684.806 193.136 697.208C222.775 709.61 276.775 644.439 306.413 656.841C336.052 669.243 329.992 754.473 359.63 766.875C389.268 779.277 437.489 711.688 467.128 724.09" stroke="#1724AE" stroke-opacity="0.1"/>
<path d="M-149 572.137C-119.361 584.539 -59.7076 507.106 -30.0692 519.508C-0.430828 531.91 -10.6623 630.023 18.9761 642.424C48.6145 654.826 109.528 577.921 139.166 590.323C168.804 602.724 158.499 700.806 188.137 713.208C217.776 725.61 271.776 660.439 301.414 672.841C331.053 685.243 324.993 770.473 354.631 782.875C384.269 795.277 432.49 727.688 462.128 740.09" stroke="#1724AE" stroke-opacity="0.1"/>
<path d="M-156 585.137C-126.361 597.539 -66.7076 520.106 -37.0692 532.508C-7.43083 544.91 -17.6623 643.023 11.9761 655.424C41.6145 667.826 102.528 590.921 132.166 603.323C161.804 615.724 151.499 713.806 181.137 726.208C210.776 738.61 264.776 673.439 294.414 685.841C324.053 698.243 317.993 783.473 347.631 795.875C377.269 808.277 425.49 740.688 455.128 753.09" stroke="#1724AE" stroke-opacity="0.1"/>
<path d="M-158 595.137C-128.361 607.539 -68.7076 530.106 -39.0692 542.508C-9.43083 554.91 -19.6623 653.023 9.97613 665.424C39.6145 677.826 100.528 600.921 130.166 613.323C159.804 625.724 149.499 723.806 179.137 736.208C208.776 748.61 262.776 683.439 292.414 695.841C322.053 708.243 315.993 793.473 345.631 805.875C375.269 818.277 423.49 750.688 453.128 763.09" stroke="#1724AE" stroke-opacity="0.1"/>
<path d="M-161 604.137C-131.361 616.539 -71.7076 539.106 -42.0692 551.508C-12.4308 563.91 -22.6623 662.023 6.97613 674.424C36.6145 686.826 97.5276 609.921 127.166 622.323C156.804 634.724 146.499 732.806 176.137 745.208C205.776 757.61 259.776 692.439 289.414 704.841C319.053 717.243 312.993 802.473 342.631 814.875C372.269 827.277 420.49 759.688 450.128 772.09" stroke="#1724AE" stroke-opacity="0.1"/>
<path d="M-165 616.137C-135.361 628.539 -75.7076 551.106 -46.0692 563.508C-16.4308 575.91 -26.6623 674.023 2.97613 686.424C32.6145 698.826 93.5276 621.921 123.166 634.323C152.804 646.724 142.499 744.806 172.137 757.208C201.776 769.61 255.776 704.439 285.414 716.841C315.053 729.243 308.993 814.473 338.631 826.875C368.269 839.277 416.49 771.688 446.128 784.09" stroke="#1724AE" stroke-opacity="0.1"/>
<path d="M-169 625.137C-139.361 637.539 -79.7076 560.106 -50.0692 572.508C-20.4308 584.91 -30.6623 683.023 -1.02387 695.424C28.6145 707.826 89.5276 630.921 119.166 643.323C148.804 655.724 138.499 753.806 168.137 766.208C197.776 778.61 251.776 713.439 281.414 725.841C311.053 738.243 304.993 823.473 334.631 835.875C364.269 848.277 412.49 780.688 442.128 793.09" stroke="#1724AE" stroke-opacity="0.1"/>
<path d="M-174 634.137C-144.361 646.539 -84.7076 569.106 -55.0692 581.508C-25.4308 593.91 -35.6623 692.023 -6.02387 704.424C23.6145 716.826 84.5276 639.921 114.166 652.323C143.804 664.724 133.499 762.806 163.137 775.208C192.776 787.61 246.776 722.439 276.414 734.841C306.053 747.243 299.993 832.473 329.631 844.875C359.269 857.277 407.49 789.688 437.128 802.09" stroke="#1724AE" stroke-opacity="0.1"/>
<path d="M-178 646.137C-148.361 658.539 -88.7076 581.106 -59.0692 593.508C-29.4308 605.91 -39.6623 704.023 -10.0239 716.424C19.6145 728.826 80.5276 651.921 110.166 664.323C139.804 676.724 129.499 774.806 159.137 787.208C188.776 799.61 242.776 734.439 272.414 746.841C302.053 759.243 295.993 844.473 325.631 856.875C355.269 869.277 403.49 801.688 433.128 814.09" stroke="#1724AE" stroke-opacity="0.1"/>
<path d="M-185 659.137C-155.361 671.539 -95.7076 594.106 -66.0692 606.508C-36.4308 618.91 -46.6623 717.023 -17.0239 729.424C12.6145 741.826 73.5276 664.921 103.166 677.323C132.804 689.724 122.499 787.806 152.137 800.208C181.776 812.61 235.776 747.439 265.414 759.841C295.053 772.243 288.993 857.473 318.631 869.875C348.269 882.277 396.49 814.688 426.128 827.09" stroke="#1724AE" stroke-opacity="0.1"/>
<path d="M-192 670.137C-162.361 682.539 -102.708 605.106 -73.0692 617.508C-43.4308 629.91 -53.6623 728.023 -24.0239 740.424C5.61453 752.826 66.5276 675.921 96.166 688.323C125.804 700.724 115.499 798.806 145.137 811.208C174.776 823.61 228.776 758.439 258.414 770.841C288.053 783.243 281.993 868.473 311.631 880.875C341.269 893.277 389.49 825.688 419.128 838.09" stroke="#1724AE" stroke-opacity="0.1"/>
<path d="M-197 686.137C-167.361 698.539 -107.708 621.106 -78.0692 633.508C-48.4308 645.91 -58.6623 744.023 -29.0239 756.424C0.614533 768.826 61.5276 691.921 91.166 704.323C120.804 716.724 110.499 814.806 140.137 827.208C169.776 839.61 223.776 774.439 253.414 786.841C283.053 799.243 276.993 884.473 306.631 896.875C336.269 909.277 384.49 841.688 414.128 854.09" stroke="#1724AE" stroke-opacity="0.1"/>
<path d="M-201 694.137C-171.361 706.539 -111.708 629.106 -82.0692 641.508C-52.4308 653.91 -62.6623 752.023 -33.0239 764.424C-3.38547 776.826 57.5276 699.921 87.166 712.323C116.804 724.724 106.499 822.806 136.137 835.208C165.776 847.61 219.776 782.439 249.414 794.841C279.053 807.243 272.993 892.473 302.631 904.875C332.269 917.277 380.49 849.688 410.128 862.09" stroke="#1724AE" stroke-opacity="0.1"/>
<path d="M-205 703.137C-175.361 715.539 -115.708 638.106 -86.0692 650.508C-56.4308 662.91 -66.6623 761.023 -37.0239 773.424C-7.38547 785.826 53.5276 708.921 83.166 721.323C112.804 733.724 102.499 831.806 132.137 844.208C161.776 856.61 215.776 791.439 245.414 803.841C275.053 816.243 268.993 901.473 298.631 913.875C328.269 926.277 376.49 858.688 406.128 871.09" stroke="#1724AE" stroke-opacity="0.1"/>
<path d="M-205 712.137C-175.361 724.539 -115.708 647.106 -86.0692 659.508C-56.4308 671.91 -66.6623 770.023 -37.0239 782.424C-7.38547 794.826 53.5276 717.921 83.166 730.323C112.804 742.724 102.499 840.806 132.137 853.208C161.776 865.61 215.776 800.439 245.414 812.841C275.053 825.243 268.993 910.473 298.631 922.875C328.269 935.277 376.49 867.688 406.128 880.09" stroke="#1724AE" stroke-opacity="0.1"/>
<path d="M-210 724.137C-180.361 736.539 -120.708 659.106 -91.0692 671.508C-61.4308 683.91 -71.6623 782.023 -42.0239 794.424C-12.3855 806.826 48.5276 729.921 78.166 742.323C107.804 754.724 97.4989 852.806 127.137 865.208C156.776 877.61 210.776 812.439 240.414 824.841C270.053 837.243 263.993 922.473 293.631 934.875C323.269 947.277 371.49 879.688 401.128 892.09" stroke="#1724AE" stroke-opacity="0.1"/>
<path d="M-214 735.137C-184.361 747.539 -124.708 670.106 -95.0692 682.508C-65.4308 694.91 -75.6623 793.023 -46.0239 805.424C-16.3855 817.826 44.5276 740.921 74.166 753.323C103.804 765.724 93.4989 863.806 123.137 876.208C152.776 888.61 206.776 823.439 236.414 835.841C266.053 848.243 259.993 933.473 289.631 945.875C319.269 958.277 367.49 890.688 397.128 903.09" stroke="#1724AE" stroke-opacity="0.1"/>
<path d="M-221 746.137C-191.361 758.539 -131.708 681.106 -102.069 693.508C-72.4308 705.91 -82.6623 804.023 -53.0239 816.424C-23.3855 828.826 37.5276 751.921 67.166 764.323C96.8044 776.724 86.4989 874.806 116.137 887.208C145.776 899.61 199.776 834.439 229.414 846.841C259.053 859.243 252.993 944.473 282.631 956.875C312.269 969.277 360.49 901.688 390.128 914.09" stroke="#1724AE" stroke-opacity="0.1"/>
<path d="M-228 757.137C-198.361 769.539 -138.708 692.106 -109.069 704.508C-79.4308 716.91 -89.6623 815.023 -60.0239 827.424C-30.3855 839.826 30.5276 762.921 60.166 775.323C89.8044 787.724 79.4989 885.806 109.137 898.208C138.776 910.61 192.776 845.439 222.414 857.841C252.053 870.243 245.993 955.473 275.631 967.875C305.269 980.277 353.49 912.688 383.128 925.09" stroke="#1724AE" stroke-opacity="0.1"/>
<path d="M-230 764.137C-200.361 776.539 -140.708 699.106 -111.069 711.508C-81.4308 723.91 -91.6623 822.023 -62.0239 834.424C-32.3855 846.826 28.5276 769.921 58.166 782.323C87.8044 794.724 77.4989 892.806 107.137 905.208C136.776 917.61 190.776 852.439 220.414 864.841C250.053 877.243 243.993 962.473 273.631 974.875C303.269 987.277 351.49 919.688 381.128 932.09" stroke="#1724AE" stroke-opacity="0.1"/>
<path d="M-232 769.137C-202.361 781.539 -142.708 704.106 -113.069 716.508C-83.4308 728.91 -93.6623 827.023 -64.0239 839.424C-34.3855 851.826 26.5276 774.921 56.166 787.323C85.8044 799.724 75.4989 897.806 105.137 910.208C134.776 922.61 188.776 857.439 218.414 869.841C248.053 882.243 241.993 967.473 271.631 979.875C301.269 992.277 349.49 924.688 379.128 937.09" stroke="#1724AE" stroke-opacity="0.1"/>
<path d="M-235 776.137C-205.361 788.539 -145.708 711.106 -116.069 723.508C-86.4308 735.91 -96.6623 834.023 -67.0239 846.424C-37.3855 858.826 23.5276 781.921 53.166 794.323C82.8044 806.724 72.4989 904.806 102.137 917.208C131.776 929.61 185.776 864.439 215.414 876.841C245.053 889.243 238.993 974.473 268.631 986.875C298.269 999.277 346.49 931.688 376.128 944.09" stroke="#1724AE" stroke-opacity="0.1"/>
<path d="M-237 781.137C-207.361 793.539 -147.708 716.106 -118.069 728.508C-88.4308 740.91 -98.6623 839.023 -69.0239 851.424C-39.3855 863.826 21.5276 786.921 51.166 799.323C80.8044 811.724 70.4989 909.806 100.137 922.208C129.776 934.61 183.776 869.439 213.414 881.841C243.053 894.243 236.993 979.473 266.631 991.875C296.269 1004.28 344.49 936.688 374.128 949.09" stroke="#1724AE" stroke-opacity="0.1"/>
</g>
<defs>
<clipPath id="clip0_125_349">
<rect width="375" height="812" rx="30" fill="white"/>
</clipPath>
</defs>
</svg>
